<?xml version="1.0" encoding="UTF-8" standalone="no"?>
<svg
   xmlns:dc="http://purl.org/dc/elements/1.1/"
   xmlns:cc="http://creativecommons.org/ns#"
   xmlns:rdf="http://www.w3.org/1999/02/22-rdf-syntax-ns#"
   xmlns:svg="http://www.w3.org/2000/svg"
   xmlns="http://www.w3.org/2000/svg"
   xmlns:sodipodi="http://sodipodi.sourceforge.net/DTD/sodipodi-0.dtd"
   xmlns:inkscape="http://www.inkscape.org/namespaces/inkscape"
   width="210mm"
   height="297mm"
   viewBox="0 0 210 297"
   version="1.1"
   id="svg1028"
   inkscape:version="1.0.1 (3bc2e813f5, 2020-09-07)"
   sodipodi:docname="Job_settings.svg">
  <defs
     id="defs1022" />
  <sodipodi:namedview
     id="base"
     pagecolor="#ffffff"
     bordercolor="#666666"
     borderopacity="1.0"
     inkscape:pageopacity="0.0"
     inkscape:pageshadow="2"
     inkscape:zoom="1.4"
     inkscape:cx="385.80736"
     inkscape:cy="352.13652"
     inkscape:document-units="mm"
     inkscape:current-layer="layer1"
     inkscape:document-rotation="0"
     showgrid="false"
     showborder="false"
     inkscape:window-width="1920"
     inkscape:window-height="1056"
     inkscape:window-x="0"
     inkscape:window-y="0"
     inkscape:window-maximized="1" />
  <metadata
     id="metadata1025">
    <rdf:RDF>
      <cc:Work
         rdf:about="">
        <dc:format>image/svg+xml</dc:format>
        <dc:type
           rdf:resource="http://purl.org/dc/dcmitype/StillImage" />
        <dc:title></dc:title>
      </cc:Work>
    </rdf:RDF>
  </metadata>
  <g
     inkscape:label="Layer 1"
     inkscape:groupmode="layer"
     id="layer1">
    <path
       style="fill:#ff0000;stroke-width:0.264583"
       d="m 93.97673,152.37722 c -8.77919,-2.97152 -17.21389,-8.04051 -23.61406,-14.19132 -2.63209,-2.52954 -2.62203,-2.86949 0.16312,-5.51278 3.21059,-3.04707 4.64259,-6.25101 4.60534,-10.30394 -0.0777,-8.45097 -7.92111,-14.93479 -16.05901,-13.27523 -1.11127,0.22662 -2.39244,0.59758 -2.84703,0.82436 -1.8144,0.90514 -2.961369,0.41091 -3.509449,-1.51224 -1.87802,-6.58982 -2.55823,-17.054703 -1.58949,-24.454059 0.60788,-4.643123 1.60618,-8.800891 2.28719,-9.525781 0.728419,-0.77538 1.183069,-0.764021 3.489719,0.0872 2.31702,0.855041 6.08692,0.99854 8.2535,0.314172 5.90832,-1.866271 9.90872,-7.030101 9.96519,-12.863341 0.0254,-2.623751 -0.26136,-3.918871 -1.39169,-6.285511 -0.83543,-1.74917 -1.40155,-2.49235 -3.15197,-4.13777 -3.16588,-2.97596 -3.13818,-3.07201 2.23198,-7.73863 4.84807,-4.212931 10.39738,-7.662551 16.5445,-10.284547 3.11623,-1.32921 8.49056,-3.09131 9.42836,-3.09131 1.00572,0 1.58415,0.84226 1.92581,2.80421 1.92547,11.056886 14.74496,15.450836 22.92548,7.857816 1.89486,-1.75878 3.55714,-4.75043 3.93957,-7.090156 0.36874,-2.25598 0.46644,-2.55305 1.00455,-3.05437 0.3055,-0.28463 0.84469,-0.5175 1.19818,-0.5175 0.75318,0 6.73121,1.97275 9.54058,3.14839 6.23844,2.610606 13.40373,7.357106 18.88724,12.511446 2.50572,2.35531 2.48068,2.75466 -0.3406,5.43224 -3.62207,3.43758 -5.14592,7.508559 -4.4728,11.94912 0.65145,4.297669 2.6097,7.346849 6.23247,9.70458 3.39312,2.208271 7.88895,2.726129 11.76384,1.355061 1.10235,-0.390051 2.24245,-0.709181 2.53357,-0.709181 1.27291,0 2.01657,1.970029 3.19604,8.466669 0.66277,3.650581 0.65646,15.947449 -0.0101,19.706312 -0.87064,4.90968 -1.49403,7.10191 -2.20216,7.74421 -0.8317,0.75438 -1.08078,0.7468 -3.51734,-0.10705 -2.68687,-0.94157 -6.22335,-0.99468 -8.69655,-0.1306 -4.98847,1.74286 -8.54324,5.98271 -9.28833,11.07836 -0.41822,2.86026 -0.0499,5.11218 1.29041,7.89062 0.83137,1.72337 1.43354,2.51464 3.16221,4.15527 2.81391,2.67059 2.83693,3.02718 0.34934,5.41207 -4.57181,4.38307 -10.3018,8.37405 -16.07343,11.19525 -3.48578,1.70386 -11.10383,4.49307 -12.27176,4.49307 -1.07503,0 -1.88016,-1.07375 -2.16931,-2.89307 -0.79979,-5.03219 -4.31717,-9.16698 -9.26915,-10.89619 -2.35057,-0.82081 -6.01966,-0.81427 -8.43665,0.015 -3.10642,1.06585 -5.29377,2.72679 -6.98969,5.30756 -1.36941,2.08391 -1.88552,3.36501 -2.28895,5.68165 -0.33907,1.94712 -0.96615,2.78559 -2.08219,2.78413 -0.37274,-5.3e-4 -2.46365,-0.60538 -4.64647,-1.34421 z m 28.61909,-24.6834 c 10.79617,-2.71149 19.48348,-9.60839 24.40444,-19.37481 2.39306,-4.7494 3.46113,-9.122613 3.64434,-14.921703 0.20898,-6.614858 -0.7663,-11.498627 -3.38159,-16.933327 -2.02363,-4.205222 -3.95605,-6.93003 -7.2311,-10.196211 -5.54439,-5.529379 -12.08057,-8.933558 -19.79177,-10.30794 -3.43385,-0.61202 -10.33326,-0.43818 -13.82799,0.34842 -4.5421,1.022339 -8.59313,2.774331 -12.76007,5.518481 -2.62537,1.728941 -6.9954,5.938189 -9.01583,8.684119 -2.82152,3.834681 -5.4699,9.93397 -6.43357,14.81667 -0.48213,2.442868 -0.48895,11.309348 -0.0104,13.493748 2.79521,12.758423 10.92471,22.620203 22.42877,27.208023 5.09259,2.03092 8.23081,2.55678 14.52233,2.43346 4.02175,-0.0788 5.18088,-0.19843 7.45241,-0.76893 z M 98.4146,115.96469 c -0.43934,-0.67052 -0.47111,-2.16937 -0.50055,-23.614073 -0.0341,-24.813017 -0.0557,-24.419918 1.36483,-24.776457 0.80713,-0.202571 1.57149,0.150558 5.3349,2.46475 0.76114,0.46804 1.95339,1.159819 2.64946,1.53729 0.69607,0.37747 2.03949,1.14537 2.98537,1.706448 0.94588,0.56107 2.43417,1.39868 3.30729,1.861352 0.87313,0.462658 1.76609,0.98248 1.98438,1.155128 0.21828,0.172662 0.93265,0.59572 1.5875,0.940152 0.65484,0.34443 1.36921,0.767149 1.5875,0.93938 0.21828,0.17223 1.05171,0.644109 1.85208,1.048631 0.80036,0.404508 1.6338,0.874757 1.85208,1.044987 0.21828,0.170241 0.93266,0.59132 1.5875,0.935752 0.65485,0.34443 1.37859,0.78713 1.60834,0.983801 0.22974,0.196659 0.53011,0.357557 0.66749,0.357557 0.13738,0 0.84238,0.389433 1.56667,0.865402 0.72428,0.475959 1.97172,1.203659 2.77209,1.617099 0.80036,0.413441 1.64317,0.916991 1.87291,1.118981 0.22974,0.201999 0.53011,0.367268 0.6675,0.367268 0.13737,0 0.88253,0.416722 1.6559,0.926039 0.77337,0.50933 1.45707,0.92605 1.51933,0.92605 0.0998,0 1.61618,0.86084 3.76647,2.13819 0.59223,0.3518 0.70435,0.60329 0.70435,1.57985 v 1.16145 l -3.57188,2.07993 c -1.96453,1.14396 -4.58391,2.6198 -5.82083,3.27964 -1.23693,0.65984 -2.42756,1.3482 -2.64584,1.529693 -0.38595,0.3209 -7.92895,4.66265 -10.31875,5.93947 -0.65484,0.34988 -1.66687,0.95212 -2.24895,1.33832 -0.58209,0.3862 -3.02287,1.81168 -5.42396,3.16772 -2.4011,1.35605 -5.73759,3.28243 -7.41443,4.28085 -3.39525,2.02157 -4.22385,2.20565 -4.94875,1.09935 z"
       id="path1011" />
  </g>
</svg>
