<?xml version="1.0" encoding="UTF-8" standalone="no"?>
<svg
   xmlns:dc="http://purl.org/dc/elements/1.1/"
   xmlns:cc="http://creativecommons.org/ns#"
   xmlns:rdf="http://www.w3.org/1999/02/22-rdf-syntax-ns#"
   xmlns:svg="http://www.w3.org/2000/svg"
   xmlns="http://www.w3.org/2000/svg"
   xmlns:sodipodi="http://sodipodi.sourceforge.net/DTD/sodipodi-0.dtd"
   xmlns:inkscape="http://www.inkscape.org/namespaces/inkscape"
   width="210mm"
   height="297mm"
   viewBox="0 0 210 297"
   version="1.1"
   id="svg1028"
   inkscape:version="1.0.1 (3bc2e813f5, 2020-09-07)"
   sodipodi:docname="Job_settings.svg">
  <defs
     id="defs1022" />
  <sodipodi:namedview
     id="base"
     pagecolor="#ffffff"
     bordercolor="#666666"
     borderopacity="1.0"
     inkscape:pageopacity="0.0"
     inkscape:pageshadow="2"
     inkscape:zoom="1.4"
     inkscape:cx="385.80736"
     inkscape:cy="352.13652"
     inkscape:document-units="mm"
     inkscape:current-layer="layer1"
     inkscape:document-rotation="0"
     showgrid="false"
     showborder="false"
     inkscape:window-width="1920"
     inkscape:window-height="1056"
     inkscape:window-x="0"
     inkscape:window-y="0"
     inkscape:window-maximized="1" />
  <metadata
     id="metadata1025">
    <rdf:RDF>
      <cc:Work
         rdf:about="">
        <dc:format>image/svg+xml</dc:format>
        <dc:type
           rdf:resource="http://purl.org/dc/dcmitype/StillImage" />
        <dc:title></dc:title>
      </cc:Work>
    </rdf:RDF>
  </metadata>
  <g
     inkscape:label="Layer 1"
     inkscape:groupmode="layer"
     id="layer1">
    <g
       id="g2410"
       transform="translate(98.894406,-63.956112)"
       style="fill:#ff0000">
      <path
         style="fill:#ff0000;stroke-width:0.264583"
         d="m -9.9653387,222.93137 c -0.3670753,-0.28874 -0.7309003,-0.79476 -0.8085053,-1.12448 -0.0776,-0.32972 -0.395447,-3.457 -0.706319,-6.94949 -0.676084,-7.59546 -0.666498,-7.54063 -1.318389,-7.54063 -0.99926,0 -6.761554,-1.9025 -9.604317,-3.171 -1.591169,-0.71001 -3.951618,-1.90187 -5.245443,-2.64858 l -2.352408,-1.35766 -5.617006,4.64695 c -5.200118,4.30206 -5.695243,4.64696 -6.671132,4.64696 -1.020483,0 -1.238189,-0.18407 -6.821447,-5.76732 -5.583259,-5.58326 -5.767322,-5.80097 -5.767322,-6.82145 0,-0.97592 0.345034,-1.47119 4.650828,-6.67582 l 4.650827,-5.62169 -1.201472,-2.04938 c -2.49971,-4.26383 -5.300539,-11.2304 -5.845081,-14.53861 -0.142014,-0.86277 -0.318659,-1.15237 -0.757145,-1.2413 -0.314553,-0.0638 -3.429415,-0.36936 -6.921915,-0.67904 -3.4925,-0.30968 -6.619773,-0.62768 -6.949497,-0.70666 -0.329723,-0.079 -0.835739,-0.44395 -1.124479,-0.81102 -0.497719,-0.63275 -0.524982,-1.08964 -0.524982,-8.79813 0,-7.7465 0.02516,-8.1627 0.532391,-8.80754 0.667639,-0.84877 0.69622,-0.85406 8.198859,-1.51732 3.419739,-0.30232 6.47507,-0.60284 6.789623,-0.66782 0.437926,-0.0905 0.615312,-0.38179 0.757145,-1.24346 0.544546,-3.30824 3.345372,-10.27479 5.845121,-14.53868 l 1.201513,-2.04946 -4.650868,-5.61399 c -4.319466,-5.21396 -4.650868,-5.68965 -4.650868,-6.67574 0,-1.03042 0.170199,-1.23196 5.767322,-6.82908 5.583258,-5.58326 5.800964,-5.76732 6.821447,-5.76732 0.97592,0 1.471186,0.34503 6.675815,4.65083 l 5.621689,4.65082 2.049386,-1.20147 c 4.263826,-2.49971 11.230395,-5.30054 14.538607,-5.84508 0.861671,-0.14183 1.152993,-0.31922 1.243465,-0.75714 0.06498,-0.31456 0.365503,-3.36989 0.667822,-6.789627 0.66326,-7.502639 0.668549,-7.53122 1.5173162,-8.198859 0.6448425,-0.507233 1.0610426,-0.532391 8.8075448,-0.532391 7.7465022,0 8.1627023,0.02516 8.8075448,0.532391 0.8487674,0.667639 0.8540565,0.69622 1.5173166,8.198859 0.3023182,3.419737 0.6028372,6.475067 0.6678215,6.789627 0.090472,0.43792 0.3817941,0.61531 1.2434651,0.75714 3.308236,0.54455 10.274781,3.34537 14.538676,5.84512 l 2.049454,1.20152 5.613995,-4.65087 c 5.213964,-4.31947 5.68965,-4.65087 6.675745,-4.65087 1.030419,0 1.231952,0.1702 6.829075,5.76732 5.583258,5.58326 5.767321,5.80097 5.767321,6.82145 0,0.97592 -0.345035,1.47118 -4.650827,6.67581 l -4.650827,5.62169 1.20147,2.04939 c 2.499712,4.26382 5.300541,11.23039 5.845082,14.53861 0.141833,0.86167 0.31922,1.15299 0.757145,1.24346 0.314553,0.065 3.369884,0.3655 6.789623,0.66782 7.502639,0.66326 7.531219,0.66855 8.198858,1.51732 0.507233,0.64484 0.532392,1.06104 0.532392,8.80754 0,7.74651 -0.02516,8.16271 -0.532392,8.80755 -0.667639,0.84877 -0.696219,0.85405 -8.198858,1.51731 -3.419739,0.30232 -6.455833,0.59822 -6.746874,0.65755 -0.428517,0.0874 -0.661858,0.62723 -1.226778,2.8383 -0.605372,2.3694 -2.833222,8.45144 -3.247511,8.86574 -0.0794,0.0794 -2.116887,-1.74812 -4.527754,-4.06115 -2.410865,-2.31303 -5.751877,-5.51519 -7.42447,-7.11592 -3.041081,-2.91042 -3.041081,-2.91042 -2.632921,-4.89479 0.683617,-3.32359 0.801468,-7.905 0.292658,-11.37709 C 30.234488,136.72081 19.703643,125.5649 5.44737,122.49157 c -3.1446468,-0.67791 -10.0845192,-0.67791 -13.229166,0 -13.526788,2.91607 -23.700797,13.09008 -26.616868,26.61687 -0.677915,3.14465 -0.677915,10.08452 0,13.22917 3.067812,14.23068 14.2548,24.79086 28.4689512,26.87384 3.472082,0.50881 8.0535009,0.39096 11.3770828,-0.29266 1.9843749,-0.40815 1.9843749,-0.40815 4.894791,2.63293 1.60073,1.67259 4.802894,5.0136 7.115921,7.42447 2.313027,2.41086 4.140544,4.44835 4.061148,4.52775 -0.414293,0.41429 -6.496338,2.64214 -8.865737,3.24751 -2.213407,0.56552 -2.750434,0.79781 -2.8361326,1.22678 -0.058145,0.29104 -0.3590898,3.38667 -0.6687687,6.87917 -0.3096789,3.49249 -0.6276763,6.61977 -0.7066624,6.94949 -0.078986,0.32972 -0.4439417,0.83574 -0.8110166,1.12448 -0.6327458,0.49772 -1.0896388,0.52498 -8.7981257,0.52498 -7.7084869,0 -8.1653799,-0.0273 -8.7981257,-0.52498 z m 60.2595817,-4.06349 c -2.856018,-0.94837 -2.614091,-0.70886 -40.099764,-39.69899 l -1.7515469,-1.82185 -2.0930922,0.68868 c -4.0700323,1.33914 -8.0815864,1.58038 -12.147261,0.73049 -4.5547759,-0.95213 -7.9768699,-2.72102 -11.3396419,-5.86147 -3.402089,-3.17718 -5.689385,-6.90396 -6.837978,-11.1414 -0.830477,-3.06383 -0.823442,-8.62612 0.01482,-11.7092 0.657093,-2.41679 1.128493,-3.06237 2.236147,-3.06237 0.681305,0 1.7262,0.92713 7.454789,6.61459 6.4118301,6.36579 6.7011017,6.61458 7.6908126,6.61458 0.977556,0 1.2478755,-0.21949 5.4687865,-4.4404 5.8026112,-5.80261 5.750393,-5.1265 0.78842386,-10.20811 -9.68237896,-9.91584 -9.57719656,-9.80041 -9.57719656,-10.50987 0,-1.00157 0.7028815,-1.49104 3.0623641,-2.13255 3.0830863,-0.83826 8.6453764,-0.84529 11.7092036,-0.0148 4.098094,1.11082 7.8451809,3.36837 10.9092469,6.5726 2.887977,3.02009 4.477295,5.74671 5.716264,9.80676 0.639948,2.09707 0.710242,2.73332 0.710242,6.42847 0,3.75389 -0.06294,4.30261 -0.743548,6.48229 -0.40895,1.30969 -0.757237,2.58282 -0.773972,2.82919 -0.01826,0.26863 7.913314,8.10646 19.813322,19.57917 18.731668,18.05907 19.895647,19.23466 20.769791,20.97703 0.84206,1.67842 0.92593,2.05034 0.924814,4.10104 -0.0011,1.91342 -0.114287,2.50027 -0.74716,3.87194 -1.499851,3.25073 -4.680537,5.40193 -8.232973,5.56824 -1.085927,0.0508 -2.309169,-0.0596 -2.924889,-0.26405 z"
         id="path2424" />
      <path
         style="fill:#ff0000;stroke-width:0.264583"
         d="m -9.9747578,222.92396 c -0.8487672,-0.66764 -0.8540562,-0.69622 -1.5173162,-8.19886 -0.302319,-3.41974 -0.602838,-6.47507 -0.667822,-6.78962 -0.09055,-0.43832 -0.381018,-0.61477 -1.243465,-0.75539 -3.230295,-0.52667 -10.343797,-3.38759 -14.54038,-5.84788 l -2.051161,-1.20251 -5.624382,4.65187 c -4.930717,4.07814 -5.73908,4.65182 -6.554383,4.6515 -0.855341,-3.4e-4 -1.402611,-0.46423 -6.816981,-5.77839 -5.691798,-5.58645 -5.886979,-5.81245 -5.886979,-6.81661 0,-0.95576 0.371028,-1.48719 4.651867,-6.66298 l 4.651868,-5.62438 -1.198546,-2.04457 c -2.429747,-4.14486 -4.658347,-9.56023 -5.608214,-13.62765 -0.387289,-1.6584 -0.586487,-2.0797 -1.025778,-2.1695 -0.299835,-0.0613 -3.343124,-0.35879 -6.762863,-0.66111 -7.502639,-0.66326 -7.53122,-0.66854 -8.198859,-1.51731 -0.507233,-0.64484 -0.532391,-1.06104 -0.532391,-8.80755 0,-7.7465 0.02516,-8.1627 0.532391,-8.80754 0.667639,-0.84877 0.69622,-0.85406 8.198859,-1.51732 3.419739,-0.30232 6.463028,-0.59981 6.762863,-0.6611 0.439291,-0.0898 0.638489,-0.5111 1.025778,-2.16951 0.949703,-4.06672 3.178471,-9.48279 5.607174,-13.62587 l 1.197506,-2.0428 -4.650827,-5.62169 c -4.081201,-4.93315 -4.650828,-5.73587 -4.650828,-6.554 0,-0.86222 0.442368,-1.375 5.884774,-6.82144 5.443939,-5.44798 5.954606,-5.88914 6.81698,-5.88914 0.817943,0 1.621615,0.5702 6.556589,4.65187 l 5.624382,4.65186 2.044576,-1.19854 c 4.144853,-2.42975 9.560226,-4.65835 13.627641,-5.60822 1.658409,-0.38728 2.079707,-0.58648 2.169504,-1.02577 0.06129,-0.29984 0.358788,-3.34313 0.661107,-6.762867 0.66326,-7.502639 0.668549,-7.53122 1.5173162,-8.198859 0.6448425,-0.507233 1.0610426,-0.532391 8.8075448,-0.532391 7.7465022,0 8.1627023,0.02516 8.8075448,0.532391 0.8487674,0.667639 0.8540565,0.69622 1.5173166,8.198859 0.3023182,3.419737 0.5998156,6.463027 0.6611064,6.762867 0.089797,0.43929 0.5110952,0.63849 2.1695042,1.02577 4.067415,0.94987 9.482788,3.17847 13.627641,5.60822 l 2.044576,1.19854 5.624382,-4.65186 c 4.997606,-4.13347 5.731111,-4.65187 6.582103,-4.65187 0.895578,0 1.337921,0.38061 6.816982,5.86565 5.462007,5.46796 5.859258,5.93015 5.859258,6.81698 0,0.84271 -0.531114,1.59348 -4.651867,6.57571 l -4.651867,5.62438 1.20251,2.05117 c 2.4545,4.1867 4.830733,10.04938 5.734624,14.14852 0.262345,1.18974 0.458714,1.55221 0.888659,1.64034 0.303546,0.0622 3.349868,0.36048 6.769607,0.6628 7.502639,0.66326 7.531219,0.66855 8.198858,1.51732 0.507233,0.64484 0.532392,1.06104 0.532392,8.80754 0,7.74651 -0.02516,8.16271 -0.532392,8.80755 -0.667639,0.84877 -0.696219,0.85405 -8.198858,1.51731 -3.419739,0.30232 -6.455833,0.5982 -6.746874,0.65752 -0.429258,0.0875 -0.66947,0.64695 -1.272284,2.96325 -0.644794,2.47762 -2.787708,8.32652 -3.202704,8.74151 -0.07901,0.079 -2.114576,-1.74881 -4.523475,-4.06184 -2.408899,-2.31303 -5.74943,-5.51519 -7.423401,-7.11592 l -3.043587,-2.91042 0.452046,-2.11667 c 0.649624,-3.04178 0.644075,-10.06119 -0.01035,-13.09687 -1.446697,-6.71078 -4.54365,-12.44339 -9.31532,-17.24311 -4.722426,-4.75018 -10.556948,-7.91248 -17.301553,-9.37741 -3.1185748,-0.67735 -10.0819289,-0.68393 -13.1678303,-0.0125 -13.7295567,2.98753 -23.7067717,12.96475 -26.6943007,26.6943 -0.671489,3.0859 -0.664906,10.04926 0.01246,13.16783 2.943643,13.55271 13.057618,23.66725 26.6205162,26.62199 3.0116064,0.6561 10.022866,0.6581 13.0968744,0.004 l 2.1166665,-0.45057 2.9104169,3.04359 c 1.600729,1.67397 4.802893,5.0145 7.11592,7.4234 2.313028,2.4089 4.140859,4.44446 4.061847,4.52348 -0.414999,0.41499 -6.263894,2.55791 -8.741513,3.2027 -2.316298,0.60281 -2.8757749,0.84303 -2.9632567,1.27228 -0.059314,0.29105 -0.3551925,3.32714 -0.6575107,6.74688 -0.6632601,7.50264 -0.6685491,7.53122 -1.5173166,8.19886 -0.6448557,0.50723 -1.0610558,0.53239 -8.807558,0.53239 -7.7465022,0 -8.1627023,-0.0252 -8.8075448,-0.53239 z m 60.1367088,-4.09879 c -0.654844,-0.21596 -1.666875,-0.66503 -2.248958,-0.99794 -0.883047,-0.50503 -16.494817,-16.48592 -35.440121,-36.27805 l -4.0241773,-4.20406 -2.0959761,0.6916 c -5.58319492,1.84224 -11.8923271,1.53307 -17.1241396,-0.83915 -5.141354,-2.3312 -9.416417,-6.57835 -11.803437,-11.72637 -1.598293,-3.44698 -1.982185,-5.3214 -1.969392,-9.61589 0.01175,-3.94476 0.658217,-7.35016 1.590984,-8.38086 1.046441,-1.1563 1.514475,-0.82516 7.999444,5.65981 3.378369,3.37837 6.4634322,6.35415 6.8556955,6.61284 0.3922633,0.2587 1.1260428,0.47114 1.630619,0.4721 0.8348054,0.002 1.3172519,-0.3981 5.3578123,-4.43866 3.9764809,-3.97648 4.4403986,-4.53298 4.4403986,-5.32658 0,-0.4874 -0.2375482,-1.25743 -0.5278834,-1.71117 -0.2903352,-0.45373 -3.26664089,-3.56341 -6.6140062,-6.91039 -6.4039878,-6.40325 -6.7362438,-6.8713 -5.6045997,-7.89543 1.0235856,-0.92633 4.4364405,-1.57594 8.3808646,-1.59523 4.287025,-0.0209 6.129996,0.35731 9.6158892,1.97364 2.9437351,1.36494 5.0988491,2.94309 7.4705201,5.47053 5.622462,5.99172 7.705434,14.65391 5.391132,22.4194 -0.390319,1.30969 -0.759344,2.55985 -0.820055,2.77813 -0.07065,0.25402 7.074056,7.31961 19.849681,19.62984 18.788987,18.10455 20.011939,19.33834 20.844157,21.02882 0.793247,1.61131 0.883962,2.02749 0.882862,4.05036 -0.0011,1.91263 -0.114345,2.49968 -0.74716,3.87123 -1.500134,3.25134 -4.681392,5.40264 -8.232973,5.56749 -1.164307,0.054 -2.314501,-0.0611 -3.057181,-0.30601 z"
         id="path2422" />
      <path
         style="fill:#ff0000;stroke-width:0.264583"
         d="m -10.056795,222.83961 c -0.709297,-0.61011 -0.724868,-0.69616 -1.448355,-8.00365 -0.402241,-4.06279 -0.741071,-7.39772 -0.752957,-7.41094 -0.01188,-0.0132 -0.706215,-0.175 -1.54296,-0.35949 -4.082062,-0.90007 -9.437845,-3.05932 -13.847531,-5.58278 l -2.353704,-1.34693 -5.620681,4.64881 c -4.936482,4.08291 -5.734397,4.64881 -6.554835,4.64881 -0.863745,0 -1.377548,-0.44123 -6.816981,-5.85404 -5.51944,-5.49243 -5.882828,-5.91358 -5.882828,-6.81787 0,-0.74065 0.253221,-1.26905 1.093528,-2.2819 0.601441,-0.72494 2.693831,-3.2531 4.649756,-5.61813 l 3.556227,-4.30007 -1.348497,-2.35646 c -2.476205,-4.32709 -4.476829,-9.20332 -5.43737,-13.25278 -0.258884,-1.09141 -0.519537,-2.03988 -0.579229,-2.10772 -0.05969,-0.0678 -3.396317,-0.43566 -7.414722,-0.8174 -7.246114,-0.68834 -7.311275,-0.69996 -7.9244,-1.41276 -0.618209,-0.71871 -0.618209,-0.71871 -0.618209,-8.89129 0,-8.17257 0,-8.17257 0.618209,-8.89128 0.612221,-0.71175 0.689745,-0.72575 8.003645,-1.44524 4.06199,-0.39959 7.396256,-0.73766 7.40948,-0.75125 0.01322,-0.0136 0.174995,-0.70934 0.359492,-1.54608 0.902511,-4.09313 3.280235,-9.95839 5.733313,-14.14267 l 1.202512,-2.05117 -4.651868,-5.62438 c -4.072522,-4.92392 -4.651867,-5.73993 -4.651867,-6.55222 0,-0.85641 0.453091,-1.38127 5.884774,-6.81698 5.446062,-5.4501 5.954336,-5.88914 6.817871,-5.88914 0.70462,0 1.255834,0.26776 2.251162,1.09353 0.724938,0.60144 3.254772,2.69521 5.621854,4.65283 l 4.303786,3.5593 2.052799,-1.20348 c 4.18592,-2.45403 10.050525,-4.83161 14.144314,-5.73427 0.836745,-0.1845 1.53248,-0.34627 1.546077,-0.35949 0.0136,-0.0132 0.351661,-3.34749 0.751253,-7.409483 0.719492,-7.3139 0.733491,-7.391424 1.445239,-8.003645 0.718711,-0.618209 0.718711,-0.618209 8.891285,-0.618209 8.172574,0 8.172574,0 8.8912854,0.618209 0.7117477,0.612221 0.7257468,0.689745 1.4452388,8.003645 0.3995923,4.061993 0.7376557,7.396253 0.7512526,7.409483 0.0136,0.0132 0.7093322,0.17499 1.5460772,0.35949 4.082062,0.90007 9.437845,3.05931 13.847531,5.58278 l 2.353704,1.34692 5.620681,-4.6488 c 4.920541,-4.06973 5.736259,-4.64881 6.548527,-4.64881 0.856406,0 1.381271,0.45309 6.816979,5.88477 5.450102,5.44607 5.889138,5.95434 5.889138,6.81787 0,0.70462 -0.267758,1.25584 -1.093528,2.25117 -0.60144,0.72493 -2.693831,3.25309 -4.649756,5.61813 l -3.556227,4.30007 1.347869,2.35536 c 2.52443,4.41136 4.683527,9.76652 5.583732,13.84919 0.184497,0.83674 0.346269,1.53108 0.359492,1.54296 0.01323,0.0119 3.348149,0.35072 7.410945,0.75296 7.307484,0.72348 7.393535,0.73905 8.003645,1.44835 0.616744,0.71701 0.616744,0.71701 0.616744,8.88958 0,8.17258 0,8.17258 -0.616744,8.88958 -0.610891,0.71021 -0.68613,0.72368 -7.931226,1.4196 -4.022968,0.38642 -7.355472,0.75501 -7.405568,0.8191 -0.0501,0.0641 -0.419706,1.36667 -0.821354,2.89464 -0.640125,2.43518 -2.777953,8.26395 -3.17754,8.66354 -0.0794,0.0794 -2.236327,-1.86717 -4.793157,-4.32573 -2.556833,-2.45856 -5.897964,-5.66073 -7.42474,-7.11594 l -2.775955,-2.64583 0.451922,-2.11667 c 0.655827,-3.07172 0.654547,-10.08137 -0.0024,-13.09687 -3.083501,-14.15386 -14.201467,-24.73277 -28.2542942,-26.88438 -3.25907916,-0.49899 -8.5749338,-0.37258 -11.5968748,0.27577 -13.589256,2.91555 -23.693055,13.01935 -26.60861,26.60861 -0.641927,2.99199 -0.77456,8.33943 -0.285948,11.52879 2.169739,14.16278 12.673567,25.22425 26.894558,28.32237 3.0155011,0.65694 10.0251546,0.65822 13.0968743,0.002 l 2.1166666,-0.45192 2.6458331,2.77595 c 1.455208,1.52678 4.657381,4.86791 7.115937,7.42474 2.458558,2.55683 4.405135,4.71375 4.325731,4.79316 -0.399587,0.39958 -6.228363,2.53741 -8.663543,3.17754 -1.527969,0.40165 -2.830557,0.77126 -2.8946394,0.82135 -0.064085,0.0501 -0.4326784,3.3826 -0.8191024,7.40557 -0.6959203,7.2451 -0.7093875,7.32033 -1.4195927,7.93123 -0.7170075,0.61675 -0.7170075,0.61675 -8.8895815,0.61675 -8.172574,0 -8.172574,0 -8.889582,-0.61674 z m 60.351038,-3.97173 C 47.626335,217.98198 47.161873,217.53947 27.740668,197.3806 15.372107,184.54225 8.3481954,177.43893 8.0932032,177.511 c -0.2182812,0.0617 -1.4684374,0.4439 -2.7781249,0.84933 -2.1598756,0.66862 -2.750206,0.73691 -6.3499996,0.73468 -3.1955104,-0.002 -4.360185,-0.10979 -5.9778342,-0.55331 -6.9391105,-1.90251 -12.5808915,-6.641 -15.5621025,-13.0705 -1.605135,-3.46174 -1.985352,-5.32226 -1.965111,-9.61589 0.0186,-3.94632 0.665443,-7.36288 1.586703,-8.38086 1.046441,-1.1563 1.514475,-0.82516 7.999444,5.65981 3.378369,3.37837 6.4634322,6.35415 6.8556955,6.61284 0.3922633,0.2587 1.1260428,0.47114 1.630619,0.4721 0.8348054,0.002 1.3172519,-0.3981 5.3578123,-4.43866 4.0844997,-4.0845 4.4403986,-4.51605 4.4403986,-5.38426 0,-1.3418 -0.6997355,-2.17853 -7.381102,-8.82621 -6.1573034,-6.12626 -6.4967744,-6.60921 -5.3653873,-7.6331 1.0108433,-0.9148 4.4348769,-1.56477 8.3808646,-1.59092 4.286255,-0.0284 6.1153513,0.34621 9.6158892,1.96933 2.9641431,1.3744 5.1413541,2.97417 7.4935581,5.50609 5.956707,6.41182 7.804401,15.22923 4.973751,23.73533 -0.583838,1.75443 -0.583838,1.75443 1.101899,3.40664 0.927153,0.90871 9.921745,9.58279 19.987979,19.27572 17.162697,16.52623 18.35704,17.73482 19.182291,19.41115 0.788807,1.60229 0.880046,2.02194 0.880046,4.04771 0,2.01514 -0.09319,2.44938 -0.859877,4.00675 -1.600226,3.25051 -4.611574,5.26284 -8.121483,5.42716 -1.085927,0.0508 -2.309169,-0.0596 -2.924889,-0.26405 z"
         id="path2420" />
      <path
         style="fill:#ff0000;stroke-width:0.264583"
         d="m -10.055636,222.84061 c -0.703439,-0.60508 -0.726342,-0.72546 -1.321302,-6.94532 -0.333002,-3.48126 -0.642586,-6.79119 -0.68797,-7.35539 -0.08251,-1.02583 -0.08251,-1.02583 -3.257513,-1.8983 -4.671821,-1.28378 -8.119673,-2.73981 -12.630935,-5.33404 l -2.0476,-1.17748 -4.3024,3.55815 c -2.366319,1.95698 -4.895526,4.05024 -5.620464,4.65168 -0.992748,0.82363 -1.547291,1.09353 -2.246799,1.09353 -0.857567,0 -1.380015,-0.45095 -6.817871,-5.88478 -7.222221,-7.21687 -6.975471,-6.45905 -3.471646,-10.66214 1.329621,-1.59498 3.422384,-4.11996 4.650585,-5.61107 l 2.233094,-2.71112 -1.3487,-2.35682 c -2.525267,-4.41282 -4.684237,-9.76743 -5.58456,-13.85063 -0.184497,-0.83675 -0.346269,-1.53248 -0.359492,-1.54608 -0.01322,-0.0136 -3.34749,-0.35166 -7.40948,-0.75125 -7.3139,-0.71949 -7.391424,-0.73349 -8.003645,-1.44524 -0.618209,-0.71871 -0.618209,-0.71871 -0.618209,-8.89129 0,-8.17257 0,-8.17257 0.615746,-8.88842 0.605074,-0.70344 0.725455,-0.72634 6.945312,-1.3213 3.481262,-0.333 6.79119,-0.64259 7.355396,-0.68797 1.025829,-0.0825 1.025829,-0.0825 1.898296,-3.25751 1.284088,-4.67294 2.996726,-8.71042 5.467318,-12.889 l 1.050358,-1.7765 -4.654755,-5.62788 c -4.07516,-4.92711 -4.654755,-5.7434 -4.654755,-6.55571 0,-0.85641 0.453091,-1.38127 5.884774,-6.81698 5.446062,-5.4501 5.954336,-5.88914 6.817871,-5.88914 0.70462,0 1.255834,0.26776 2.251162,1.09353 0.724938,0.60144 3.249687,2.69101 5.610556,4.64349 l 4.292489,3.54997 2.899436,-1.62368 c 3.74433,-2.09683 7.821866,-3.78065 11.798918,-4.87238 3.175,-0.87156 3.175,-0.87156 3.257513,-1.89739 0.04538,-0.56421 0.354968,-3.874137 0.68797,-7.355399 0.59496,-6.219857 0.617863,-6.340238 1.321302,-6.945312 0.715849,-0.615746 0.715849,-0.615746 8.888423,-0.615746 8.172574,0 8.172574,0 8.8884226,0.615746 0.7034398,0.605074 0.7263421,0.725455 1.3213027,6.945312 0.3330019,3.481262 0.6425856,6.791189 0.6879695,7.355399 0.082513,1.02583 0.082513,1.02583 3.2575132,1.89829 4.671821,1.28379 8.119673,2.73981 12.630935,5.33404 l 2.0476,1.17749 4.3024,-3.55815 c 2.366319,-1.95699 4.895526,-4.05024 5.620464,-4.65168 0.992748,-0.82363 1.547291,-1.09353 2.246799,-1.09353 0.857567,0 1.380016,0.45094 6.81787,5.88477 7.222223,7.21687 6.975472,6.45905 3.471646,10.66215 -7.340402,8.80534 -6.980907,8.30217 -6.486986,9.07964 2.488788,3.91755 4.829101,9.24954 6.11355,13.92865 0.871561,3.175 0.871561,3.175 1.89739,3.25751 0.564206,0.0454 3.874135,0.35497 7.355396,0.68797 6.219856,0.59496 6.340239,0.61786 6.945312,1.3213 0.615746,0.71585 0.615746,0.71585 0.615746,8.88842 0,8.17258 0,8.17258 -0.615746,8.88843 -0.605073,0.70344 -0.725456,0.72634 -6.945312,1.3213 -3.481261,0.333 -6.79119,0.64258 -7.355396,0.68797 -1.025829,0.0825 -1.025829,0.0825 -1.896094,3.25751 -0.755083,2.75477 -2.741646,8.13302 -3.15782,8.54919 -0.07798,0.078 -1.182725,-0.86439 -2.454981,-2.09415 -1.272255,-1.22977 -4.607952,-4.44403 -7.412659,-7.14281 l -5.099465,-4.90687 0.42654,-1.96518 c 0.642337,-2.95941 0.775819,-8.31721 0.286744,-11.5096 -3.197894,-20.87398 -24.1266222,-33.7429 -44.224765,-27.19347 -15.420549,5.02513 -25.202617,20.99091 -22.765675,37.15695 2.477822,16.43722 16.859582,28.81428 33.481299,28.81428 2.1999151,0 6.51379,-0.49613 8.0697913,-0.92808 0.4253521,-0.11808 1.9047221,1.287 7.5406247,7.16196 3.856302,4.01987 7.0451,7.39946 7.086219,7.5102 0.158292,0.42632 -6.799146,2.99949 -10.118849,3.74241 -0.805908,0.18035 -1.47501,0.33874 -1.4868924,0.35196 -0.01188,0.0132 -0.3507158,3.34815 -0.7529565,7.41094 -0.7234872,7.30749 -0.739058,7.39354 -1.4483556,8.00365 -0.7170075,0.61674 -0.7170075,0.61674 -8.8895815,0.61674 -8.172574,0 -8.172574,0 -8.888423,-0.61574 z m 60.293269,-3.98559 c -2.77214,-0.90575 -1.73631,0.10959 -32.632797,-31.98737 -5.807797,-6.03345 -9.2587493,-9.42819 -9.5116328,-9.35668 -0.2182812,0.0617 -1.4684374,0.44393 -2.7781249,0.84936 -2.1598756,0.66862 -2.750206,0.73691 -6.3499996,0.73468 -3.1955104,-0.002 -4.360185,-0.10979 -5.9778342,-0.55331 -9.5674595,-2.62313 -16.4145325,-10.49634 -17.5048935,-20.12827 -0.263012,-2.32337 -0.242647,-3.19322 0.135723,-5.79698 0.546534,-3.76096 1.279401,-5.44999 2.42125,-5.5802 0.692491,-0.079 1.412248,0.55133 7.14375,6.25587 3.50552,3.48903 6.6337359,6.47535 6.9515905,6.63626 0.3178545,0.16091 0.9688168,0.29256 1.4465802,0.29256 0.7709322,0 1.368237,-0.49957 5.3090601,-4.4404 3.9319489,-3.93195 4.4403986,-4.53938 4.4403986,-5.3048 0,-0.47543 -0.1706721,-1.18592 -0.3792722,-1.57888 -0.2086001,-0.39295 -3.1851625,-3.51148 -6.614583,-6.93006 -6.5646292,-6.54387 -6.8910802,-6.99955 -5.7526341,-8.02983 0.6797093,-0.61513 4.1376731,-1.44756 6.8700673,-1.65383 7.01222,-0.52935 13.6047106,2.13959 18.6202446,7.53833 5.956747,6.41186 7.804403,15.22922 4.973708,23.73546 -0.583879,1.75456 -0.583879,1.75456 1.234192,3.53611 0.999937,0.97986 9.996966,9.65879 19.993397,19.28652 16.99383,16.36704 18.232161,17.6204 19.049586,19.28083 0.782278,1.58903 0.874297,2.01363 0.874668,4.03593 2.64e-4,2.01542 -0.09267,2.44925 -0.859462,4.00759 -1.599761,3.25116 -4.610904,5.26367 -8.121483,5.42802 -1.10875,0.0519 -2.319213,-0.0605 -2.981499,-0.27691 z"
         id="path2418" />
      <path
         style="fill:#ff0000;stroke-width:0.264583"
         d="m -10.055636,222.84061 c -0.703439,-0.60508 -0.726342,-0.72546 -1.321302,-6.94532 -0.333002,-3.48126 -0.642586,-6.79119 -0.68797,-7.35539 -0.08251,-1.02583 -0.08251,-1.02583 -3.257513,-1.89629 -4.581257,-1.256 -10.081505,-3.67059 -13.928645,-6.11465 -0.777472,-0.49392 -0.274296,-0.85342 -9.079645,6.48698 -4.198164,3.49972 -3.438188,3.74696 -10.657779,-3.46728 -5.449429,-5.44539 -5.889137,-5.95442 -5.889137,-6.81759 0,-0.8193 0.54964,-1.59227 4.516894,-6.3522 2.484292,-2.98066 4.57283,-5.54791 4.641197,-5.70499 0.06837,-0.15708 -0.377503,-1.10958 -0.990823,-2.11667 -2.262408,-3.71493 -4.288947,-8.54518 -5.510858,-13.13512 -0.723803,-2.71886 -0.723803,-2.71886 -1.756252,-2.80137 -0.567847,-0.0454 -3.880754,-0.35497 -7.362016,-0.68797 -6.219857,-0.59496 -6.340238,-0.61786 -6.945312,-1.3213 -0.615746,-0.71585 -0.615746,-0.71585 -0.615746,-8.88843 0,-8.17257 0,-8.17257 0.618825,-8.892 0.614627,-0.71455 0.668691,-0.72409 7.97047,-1.40718 l 7.351646,-0.68775 0.871128,-3.17163 c 1.258444,-4.58179 3.674327,-10.08324 6.114509,-13.92395 0.483149,-0.76045 0.994582,-0.0615 -7.810134,-10.67409 -0.823629,-0.99275 -1.093528,-1.54729 -1.093528,-2.2468 0,-0.85757 0.450946,-1.38002 5.884774,-6.81787 7.216871,-7.22223 6.45905,-6.97548 10.662142,-3.47165 8.805349,7.3404 8.302173,6.98091 9.079645,6.48699 3.843018,-2.44144 9.342853,-4.85671 13.925285,-6.11533 l 3.17164,-0.87113 0.68775,-7.351642 c 0.683085,-7.301779 0.692629,-7.355843 1.407176,-7.97047 0.719428,-0.618825 0.719428,-0.618825 8.892002,-0.618825 8.172574,0 8.172574,0 8.8884226,0.615746 0.7034398,0.605074 0.7263421,0.725455 1.3213027,6.945312 0.3330019,3.481262 0.6425856,6.791189 0.6879695,7.355399 0.082513,1.02583 0.082513,1.02583 3.2575132,1.89628 4.581257,1.256 10.081505,3.6706 13.928645,6.11466 0.777472,0.49392 0.274296,0.85341 9.079645,-6.48699 4.198164,-3.49972 3.438188,-3.74696 10.657778,3.46728 7.222223,7.21687 6.975472,6.45905 3.471646,10.66215 -7.093903,8.50965 -6.964953,8.33397 -6.568258,8.94864 2.437204,3.77639 5.087353,9.85057 6.323264,14.493 0.729879,2.74165 0.729879,2.74165 1.762329,2.82416 0.567846,0.0454 3.880754,0.35497 7.362015,0.68797 6.219856,0.59496 6.340239,0.61786 6.945312,1.3213 0.615746,0.71585 0.615746,0.71585 0.615746,8.88842 0,8.17258 0,8.17258 -0.615746,8.88843 -0.605073,0.70344 -0.725456,0.72634 -6.945312,1.3213 -3.481261,0.333 -6.794812,0.64258 -7.363447,0.68797 -1.03388,0.0825 -1.03388,0.0825 -1.632265,2.3425 -1.081629,4.0851 -3.173991,9.60726 -3.580976,9.45091 -0.09911,-0.0381 -3.471312,-3.22439 -7.493778,-7.08069 -5.880451,-5.63754 -7.284759,-7.11515 -7.166509,-7.54063 0.08089,-0.29104 0.322834,-1.66026 0.537657,-3.0427 2.209102,-14.21608 -5.145777,-28.54287 -18.027834,-35.11695 -4.67474,-2.38565 -8.6803225,-3.45397 -13.88734866,-3.70386 -5.80094434,-0.27839 -11.04351734,0.8017 -16.25284034,3.34845 -10.419241,5.0938 -17.285842,14.59297 -18.929179,26.18639 -0.390213,2.75286 -0.188262,8.11955 0.414149,11.00576 2.768891,13.26598 13.050498,23.55056 26.4632243,26.47087 2.9372982,0.63952 8.52671876,0.77551 11.6416661,0.28323 1.4552083,-0.22998 2.8839582,-0.48333 3.1749999,-0.56302 0.4245027,-0.11622 1.9159563,1.30084 7.5406247,7.16448 3.856302,4.02015 7.04261,7.39126 7.080686,7.49135 0.155546,0.40892 -5.358138,2.49911 -9.450908,3.58277 -2.2599862,0.59839 -2.2599862,0.59839 -2.3424992,1.63227 -0.045384,0.56863 -0.3549676,3.88218 -0.6879695,7.36344 -0.5949606,6.21986 -0.6178629,6.34024 -1.3213027,6.94532 -0.7158486,0.61574 -0.7158486,0.61574 -8.8884226,0.61574 -8.172574,0 -8.172574,0 -8.888423,-0.61574 z m 60.463478,-3.96357 c -0.665126,-0.18803 -1.758135,-0.6635 -2.428912,-1.0566 -1.022848,-0.59943 -15.403438,-15.312 -37.385441,-38.24849 l -2.1204526,-2.21252 -2.108147,0.66353 c -8.6077368,2.70928 -17.1611574,0.82487 -23.6016394,-5.19969 -6.438085,-6.02232 -8.946446,-14.96567 -6.534141,-23.29694 0.537667,-1.85692 1.04785,-2.53456 1.908243,-2.53456 0.592132,0 1.853025,1.13299 6.939214,6.23531 3.418578,3.42942 6.5371048,6.40599 6.9300613,6.61459 0.3929565,0.2086 1.1034474,0.37927 1.5788719,0.37927 0.7654289,0 1.3728567,-0.50845 5.3048056,-4.4404 3.9408256,-3.94082 4.4403986,-4.53813 4.4403986,-5.30906 0,-0.47776 -0.131654,-1.12873 -0.292563,-1.44658 -0.160909,-0.31785 -3.14722385,-3.44607 -6.636255,-6.95159 -5.704546,-5.7315 -6.3348443,-6.45126 -6.2558742,-7.14375 0.1219994,-1.06981 1.7555633,-1.8288 5.114901,-2.37649 17.2529198,-2.81285 31.2845648,13.74773 25.9084428,30.57795 -0.348689,1.09159 -0.6355,2.0485 -0.637357,2.12647 -0.0019,0.078 2.587792,2.63782 5.754777,5.68854 34.701865,33.42799 34.12298,32.8544 35.04223,34.72166 0.77942,1.58323 0.871487,2.00901 0.871487,4.03033 0,2.01514 -0.09319,2.44938 -0.859877,4.00675 -2.02887,4.12122 -6.749944,6.35475 -10.932773,5.17227 z"
         id="path2416" />
      <path
         style="fill:#ff0000;stroke-width:0.264583"
         d="m -9.5504376,223.19554 c -0.3179075,-0.13118 -0.7307844,-0.51311 -0.9174984,-0.84874 -0.191913,-0.34497 -0.630729,-3.70107 -1.009486,-7.72061 l -0.669999,-7.11038 -3.042708,-0.84129 c -4.689075,-1.29651 -9.162499,-3.19436 -12.942776,-5.49095 -0.934762,-0.56789 -1.828088,-0.97777 -1.985166,-0.91084 -0.15708,0.0669 -2.72638,2.15503 -5.709557,4.64021 -4.72727,3.93813 -5.542065,4.51864 -6.343457,4.5195 -0.846142,8e-4 -1.389692,-0.46919 -6.813021,-5.89252 -5.446349,-5.44635 -5.893521,-5.9641 -5.893521,-6.82365 0,-0.81632 0.55325,-1.59249 4.52157,-6.34346 2.486864,-2.97733 4.575402,-5.54185 4.641197,-5.69893 0.0658,-0.15708 -0.345008,-1.0504 -0.912895,-1.98517 -2.296597,-3.78027 -4.194441,-8.2537 -5.490953,-12.94277 l -0.841297,-3.04271 -7.110373,-0.67 c -4.002353,-0.37714 -7.376127,-0.81786 -7.718351,-1.00828 -0.334387,-0.18604 -0.721341,-0.63644 -0.859896,-1.00086 -0.328442,-0.86387 -0.328442,-15.73826 0,-16.60213 0.138555,-0.36443 0.525509,-0.81482 0.859896,-1.00087 0.342379,-0.1905 3.716832,-0.63097 7.724414,-1.00828 l 7.116437,-0.66999 0.731309,-2.74165 c 1.239923,-4.64841 3.889265,-10.71936 6.324691,-14.493 0.396695,-0.61467 0.525645,-0.43899 -6.568258,-8.94864 -3.496757,-4.19462 -3.745692,-3.43168 3.47603,-10.6534 5.423329,-5.42333 5.966879,-5.89344 6.813021,-5.89253 0.801392,8.7e-4 1.616187,0.58138 6.343457,4.51951 2.983177,2.48518 5.552477,4.57327 5.709557,4.6402 0.157078,0.0669 1.050404,-0.34294 1.985166,-0.91083 3.780277,-2.2966 8.253701,-4.19444 12.942776,-5.49095 l 3.042708,-0.8413 0.669999,-7.110372 c 0.377137,-4.002353 0.817864,-7.376127 1.008277,-7.718351 0.18605,-0.334387 0.636442,-0.721341 1.0008685,-0.859896 0.8638671,-0.328442 15.7382599,-0.328442 16.602127,0 0.3644265,0.138555 0.8148188,0.525509 1.0008685,0.859896 0.1904973,0.342379 0.6309677,3.716832 1.0082767,7.724414 l 0.6699991,7.116439 2.6458332,0.72083 c 4.798314,1.30725 9.57136,3.30068 13.20815,5.51629 1.007089,0.61354 1.959589,1.06169 2.116667,0.9959 0.15708,-0.0658 2.721599,-2.15434 5.698931,-4.6412 4.750967,-3.96832 5.527138,-4.52157 6.343457,-4.52157 0.859552,0 1.377299,0.44717 6.823646,5.89352 5.423331,5.42333 5.893443,5.96688 5.89253,6.81302 -7.94e-4,0.80139 -0.581377,1.61619 -4.519504,6.34346 -2.485183,2.98317 -4.573278,5.55247 -4.640207,5.70956 -0.06693,0.15707 0.342943,1.0504 0.910831,1.98516 2.296597,3.78028 4.194442,8.2537 5.490953,12.94278 l 0.841296,3.04271 7.122157,0.66145 c 7.854243,0.72945 8.39984,0.88302 8.688077,2.4454 0.08745,0.47404 0.122783,4.34134 0.07851,8.594 -0.07869,7.55845 -0.09356,7.74515 -0.662019,8.31323 -0.531717,0.53136 -1.209656,0.63965 -7.915669,1.26439 -4.064013,0.37861 -7.364065,0.80094 -7.401245,0.94718 -1.223822,4.81406 -3.658126,11.6154 -4.097879,11.4493 -0.106112,-0.0401 -3.482139,-3.22803 -7.502284,-7.08433 -5.863643,-5.62467 -7.280698,-7.11612 -7.164477,-7.54063 0.622607,-2.27411 0.966568,-6.1356 0.836657,-9.3927 -0.214548,-5.37906 -1.257636,-9.37939 -3.682367,-14.12221 -3.382801,-6.61681 -8.564756,-11.66395 -15.397183,-14.99659 -4.8184065,-2.35027 -9.4231511,-3.42282 -14.695069,-3.42282 -5.2719179,0 -9.876663,1.07255 -14.695069,3.42282 -7.140564,3.48294 -12.263704,8.60608 -15.746647,15.74664 -3.713739,7.61373 -4.419248,15.75774 -2.098167,24.22007 0.752549,2.74369 3.340497,7.93558 5.217268,10.46678 3.36187,4.53415 7.471206,7.93484 12.627546,10.44994 4.777314,2.33023 9.428538,3.42329 14.5627773,3.42232 2.3008087,-5.3e-4 6.5847539,-0.48424 8.202083,-0.92631 0.4244022,-0.116 1.9172792,1.30245 7.5406247,7.16471 3.856302,4.02015 7.045298,7.39931 7.086655,7.50926 0.156779,0.41678 -7.089782,3.00637 -11.451621,4.09229 -0.1463834,0.0365 -0.5682192,3.33203 -0.9471819,7.39986 -0.624758,6.7062 -0.7330175,7.38394 -1.2644225,7.91567 -0.5708227,0.57117 -0.7258606,0.5825 -8.71010939,0.63651 -4.47092101,0.0302 -8.38905071,-0.0523 -8.70696081,-0.18351 z m 59.9582796,-4.3175 c -0.665126,-0.18858 -1.753055,-0.66152 -2.417623,-1.05098 C 47.2182,217.37462 40.590007,210.692 29.633323,199.31942 20.201597,189.52968 11.578628,180.58489 10.47117,179.4421 l -2.0135615,-2.0778 -2.1066917,0.6655 c -13.0116997,4.1104 -26.2754278,-2.87089 -30.1713068,-15.88049 -1.258493,-4.20251 -0.87911,-11.71545 0.724776,-14.35283 0.995331,-1.63669 1.303456,-1.42798 8.577344,5.80988 8.5504175,8.50806 7.2806002,8.30216 13.4085748,2.17418 6.1279746,-6.12797 6.3338759,-4.85816 -2.1741844,-13.40857 -5.3493984,-5.37603 -6.614583,-6.78337 -6.614583,-7.35776 0,-0.84574 0.6882262,-1.36026 2.5345548,-1.89487 6.81238548,-1.97251 14.4915697,-0.57774 20.1220698,3.65479 8.273499,6.2193 11.529557,16.50136 8.381404,26.46702 l -0.665501,2.10669 2.077796,2.0134 c 1.142791,1.10736 10.139349,9.7816 19.992358,19.27608 16.711903,16.10379 17.973018,17.38144 18.785416,19.03165 0.778729,1.58183 0.870857,2.00806 0.870857,4.02905 0,2.01514 -0.09319,2.44938 -0.859877,4.00675 -1.568744,3.18657 -4.489487,5.17605 -7.926818,5.3994 -1.0428,0.0678 -2.304045,-0.0271 -3.005955,-0.22613 z"
         id="path2414" />
      <path
         style="fill:#ff0000;stroke-width:0.264583"
         d="m -9.5504376,223.18992 c -0.3179075,-0.12808 -0.7292344,-0.50749 -0.9140564,-0.84312 -0.186496,-0.33867 -0.635735,-3.77441 -1.009486,-7.72047 l -0.673441,-7.11023 -3.042708,-0.84144 c -4.689591,-1.29688 -9.162788,-3.19467 -12.942776,-5.49109 -0.934762,-0.56789 -1.828088,-0.97735 -1.985166,-0.9099 -0.15708,0.0674 -2.666849,2.10163 -5.577265,4.52042 -2.910417,2.4188 -5.559557,4.46506 -5.886979,4.54726 -0.327422,0.0822 -0.863203,0.0817 -1.190625,-0.001 -0.327422,-0.0829 -3.184922,-2.7511 -6.35,-5.92942 -6.424266,-6.45103 -6.432057,-6.46415 -5.000986,-8.42341 0.414536,-0.56754 2.449396,-3.05595 4.521912,-5.5298 2.072515,-2.47386 3.821888,-4.62644 3.887496,-4.78352 0.06561,-0.15708 -0.3827,-1.10958 -0.996238,-2.11667 -2.21541,-3.63646 -4.208739,-8.40913 -5.516378,-13.20798 l -0.72092,-2.64568 -7.116349,-0.6736 c -3.933277,-0.37231 -7.388291,-0.82337 -7.724326,-1.00844 -0.334387,-0.18416 -0.721341,-0.633 -0.859896,-0.99742 -0.328442,-0.86387 -0.328442,-15.73826 0,-16.60213 0.138555,-0.36443 0.525509,-0.81368 0.859896,-0.99833 0.337762,-0.18652 3.771097,-0.63465 7.724897,-1.00828 l 7.116919,-0.67253 0.720349,-2.64584 c 1.305682,-4.79575 3.299582,-9.57034 5.515808,-13.20815 0.613538,-1.00709 1.060763,-1.95959 0.993832,-2.11666 -0.06693,-0.15709 -2.155023,-2.72639 -4.640206,-5.70956 -3.923003,-4.70912 -4.518645,-5.54419 -4.519506,-6.33625 -9.07e-4,-0.83534 0.484329,-1.39963 5.753696,-6.69105 3.165078,-3.17832 6.022578,-5.84655 6.35,-5.92941 0.327422,-0.0829 0.863203,-0.0834 1.190625,-10e-4 0.327422,0.0822 2.976562,2.12846 5.886979,4.54725 2.910416,2.4188 5.420185,4.45299 5.577265,4.52043 0.157078,0.0674 1.109578,-0.37936 2.116667,-0.9929 3.637804,-2.21624 8.412397,-4.21014 13.20815,-5.51582 l 2.645833,-0.72035 0.672537,-7.116916 c 0.373626,-3.9538 0.821753,-7.387135 1.008274,-7.724897 0.184655,-0.334387 0.633907,-0.721341 0.9983335,-0.859896 0.8638671,-0.328442 15.7382599,-0.328442 16.602127,0 0.3644265,0.138555 0.8136784,0.525509 0.9983338,0.859896 0.1865206,0.337762 0.634648,3.771097 1.0082741,7.724897 l 0.6725364,7.116916 2.6458332,0.72035 c 4.795753,1.30568 9.570346,3.29958 13.20815,5.51581 1.007089,0.61354 1.959589,1.06076 2.116667,0.99383 0.15708,-0.0669 2.72638,-2.15502 5.709557,-4.6402 4.709115,-3.92301 5.544193,-4.51865 6.336244,-4.51951 0.835348,-9e-4 1.399635,0.48433 6.69105,5.7537 3.178321,3.16507 5.846559,6.02257 5.929418,6.35 0.08286,0.32742 0.0834,0.8632 0.0013,1.19062 -0.0822,0.32742 -2.128464,2.97656 -4.547258,5.88698 -2.418795,2.91042 -4.452988,5.42018 -4.520428,5.57727 -0.06744,0.15707 0.379363,1.10957 0.992902,2.11666 2.214422,3.63485 4.341691,8.7723 5.63332,13.60473 l 0.601028,2.24866 7.117823,0.67374 c 3.934222,0.3724 7.389754,0.8235 7.725801,1.00857 0.334386,0.18416 0.721339,0.633 0.859896,0.99743 0.329475,0.86659 0.328313,15.7386 -0.0013,16.60554 -0.437652,1.15112 -1.386088,1.37243 -8.707159,2.03181 -4.008019,0.36098 -7.010209,0.74419 -7.056403,0.90069 -0.04422,0.14982 -0.389244,1.40349 -0.766715,2.78594 -0.803603,2.94311 -3.04951,8.78311 -3.335845,8.67415 -0.108784,-0.0413 -3.486848,-3.23035 -7.506906,-7.08665 -5.847749,-5.60954 -7.280767,-7.11726 -7.167007,-7.54063 0.443836,-1.65177 0.923436,-5.90966 0.923864,-8.20208 0.0011,-5.13424 -1.092096,-9.78546 -3.422324,-14.56278 C 25.79156,133.8879 20.66842,128.76476 13.527856,125.28182 8.7094495,122.93155 4.1047049,121.859 -1.167213,121.859 c -5.245994,0 -9.830675,1.06465 -14.684374,3.41001 -7.101377,3.43145 -12.324167,8.65714 -15.792383,15.80114 -4.54328,9.35848 -4.536787,19.93754 0.01799,29.33776 3.432733,7.08451 8.626229,12.27591 15.763684,15.75734 4.777314,2.33023 9.4285378,3.42329 14.5627771,3.42232 2.29241869,-5.3e-4 6.5503104,-0.48002 8.2020829,-0.92386 0.4233625,-0.11376 1.9310826,1.31926 7.540625,7.16701 3.856302,4.02005 7.045158,7.3977 7.086345,7.50587 0.145794,0.3829 -7.255097,3.07437 -10.789332,3.92374 -0.9248614,0.22227 -0.9248614,0.22227 -1.5994827,7.3495 -0.3729619,3.94025 -0.8243464,7.3991 -1.0094568,7.73522 -0.1841579,0.33439 -0.6329997,0.72134 -0.9974262,0.8599 -0.8311382,0.31599 -15.8965019,0.30289 -16.6842881,-0.0145 z m 59.9582796,-4.31188 c -0.665126,-0.18858 -1.753352,-0.66169 -2.418281,-1.05137 -0.772144,-0.45251 -7.313057,-7.04401 -18.103032,-18.24305 C 20.594792,189.93961 11.97509,180.99405 10.731636,179.7046 l -2.2608248,-2.34447 -2.1132931,0.66759 c -12.9566981,4.09302 -26.3422751,-2.92953 -30.1588871,-15.82241 -1.270566,-4.2921 -0.904756,-11.76055 0.705755,-14.40883 0.995331,-1.63669 1.303456,-1.42798 8.577344,5.80988 8.5504175,8.50806 7.2806002,8.30216 13.4085748,2.17418 6.1279746,-6.12797 6.3338759,-4.85816 -2.1741844,-13.40857 -7.2378544,-7.27389 -7.4465624,-7.58202 -5.809874,-8.57735 1.5191501,-0.92385 4.8625573,-1.48997 8.5879989,-1.45416 2.9013625,0.0279 3.8121959,0.14418 5.820833,0.74319 12.9035327,3.84804 20.0072877,17.38772 15.8111027,30.1358 l -0.682178,2.07247 2.225119,2.18801 c 1.223817,1.20341 10.226664,9.88926 20.006328,19.3019 16.603275,15.98015 17.838966,17.2312 18.653124,18.88499 0.779893,1.58418 0.871918,2.00965 0.871918,4.0312 0,2.01514 -0.09319,2.44938 -0.859877,4.00675 -1.568744,3.18657 -4.489487,5.17605 -7.926818,5.3994 -1.0428,0.0678 -2.304045,-0.0271 -3.005955,-0.22613 z"
         id="path2412" />
    </g>
  </g>
</svg>
