<?xml version="1.0" encoding="UTF-8" standalone="no"?>
<svg
   xmlns:dc="http://purl.org/dc/elements/1.1/"
   xmlns:cc="http://creativecommons.org/ns#"
   xmlns:rdf="http://www.w3.org/1999/02/22-rdf-syntax-ns#"
   xmlns:svg="http://www.w3.org/2000/svg"
   xmlns="http://www.w3.org/2000/svg"
   xmlns:sodipodi="http://sodipodi.sourceforge.net/DTD/sodipodi-0.dtd"
   xmlns:inkscape="http://www.inkscape.org/namespaces/inkscape"
   width="210mm"
   height="297mm"
   viewBox="0 0 210 297"
   version="1.1"
   id="svg1028"
   inkscape:version="1.0.1 (3bc2e813f5, 2020-09-07)"
   sodipodi:docname="admin.svg">
  <defs
     id="defs1022" />
  <sodipodi:namedview
     id="base"
     pagecolor="#ffffff"
     bordercolor="#666666"
     borderopacity="1.0"
     inkscape:pageopacity="0.0"
     inkscape:pageshadow="2"
     inkscape:zoom="1.4"
     inkscape:cx="385.80736"
     inkscape:cy="352.13652"
     inkscape:document-units="mm"
     inkscape:current-layer="layer1"
     inkscape:document-rotation="0"
     showgrid="false"
     showborder="false"
     inkscape:window-width="1920"
     inkscape:window-height="1056"
     inkscape:window-x="0"
     inkscape:window-y="0"
     inkscape:window-maximized="1" />
  <metadata
     id="metadata1025">
    <rdf:RDF>
      <cc:Work
         rdf:about="">
        <dc:format>image/svg+xml</dc:format>
        <dc:type
           rdf:resource="http://purl.org/dc/dcmitype/StillImage" />
        <dc:title></dc:title>
      </cc:Work>
    </rdf:RDF>
  </metadata>
  <g
     inkscape:label="Layer 1"
     inkscape:groupmode="layer"
     id="layer1">
    <g
       id="g2512"
       transform="translate(94.424905,-67.459524)"
       style="fill:#ff0000">
      <path
         style="fill:#ff0000;stroke-width:0.264583"
         d="m -69.560001,228.09934 c -2.167794,-0.51634 -4.266031,-2.37966 -5.002009,-4.44201 -0.758366,-2.12508 -0.506288,-3.86395 1.34929,-9.30758 0.949731,-2.78619 2.206629,-6.07578 2.793106,-7.31021 3.859176,-8.12289 11.039711,-14.84396 19.529594,-18.27996 2.499043,-1.0114 6.652891,-2.09931 8.985066,-2.35321 1.493575,-0.16261 1.493575,-0.16261 3.218733,1.37907 3.503795,3.13114 6.927458,5.10551 10.577968,6.10016 2.44253,0.66552 8.17618,0.65193 10.715625,-0.0254 3.61406,-0.96394 7.4257589,-3.17126 10.7971803,-6.25255 1.5316518,-1.39984 1.5316518,-1.39984 3.7659338,-1.08728 11.6627437,1.63153 22.1600509,9.33007 27.5765509,20.22414 1.401111,2.81801 4.818888,12.89629 4.821798,14.21843 0.0043,1.92872 -0.753898,3.68278 -2.229622,5.15851 -2.432188,2.43218 2.043292,2.23539 -50.137676,2.20461 -25.257834,-0.0149 -46.300525,-0.11692 -46.761538,-0.22673 z m 102.652406,-19.7983 c -0.17323,-0.11014 -0.738539,-1.18987 -1.256239,-2.39941 -1.59571,-3.72813 -3.835096,-7.49367 -6.080583,-10.22452 -1.991561,-2.42204 -1.902645,-2.21906 -1.187735,-2.71145 2.612395,-1.7993 5.753692,-5.7984 6.867686,-8.74309 1.289902,-3.40966 1.591225,-7.83567 0.770379,-11.31573 -0.169531,-0.71874 -0.899178,-2.53902 -1.621432,-4.04505 -1.095926,-2.28519 -1.64955,-3.07722 -3.346191,-4.78712 -2.329799,-2.348 -4.810353,-3.90651 -7.853834,-4.93449 -1.843032,-0.62251 -2.561323,-0.71845 -5.55625,-0.74212 -2.631242,-0.0208 -3.803804,0.0853 -4.9893777,0.45148 -0.8523843,0.26327 -1.5933896,0.43508 -1.6466741,0.3818 -0.053287,-0.0533 0.038608,-1.85184 0.2042134,-3.99679 0.3274907,-4.24177 0.1033621,-7.91232 -0.7359253,-12.05226 -0.4337262,-2.13943 -0.4323742,-2.23751 0.035579,-2.57969 0.6445382,-0.47129 12.7096257,-0.51553 13.7306077,-0.0503 1.345562,0.61308 1.592773,1.3762 1.735952,5.35874 0.132292,3.67973 0.132292,3.67973 1.458302,4.12964 0.729305,0.24745 1.811398,0.69754 2.404649,1.0002 1.078641,0.55028 1.078641,0.55028 2.907324,-1.31479 2.560177,-2.61112 3.683561,-3.39374 4.871392,-3.39374 1.332384,0 2.297576,0.75863 6.791432,5.33801 3.904311,3.97861 4.400931,4.78388 3.91418,6.3468 -0.10591,0.34007 -1.317054,1.76587 -2.691429,3.16842 -2.498865,2.55011 -2.498865,2.55011 -1.911686,3.70108 0.322947,0.63303 0.789675,1.74767 1.037174,2.47697 0.449998,1.32601 0.449998,1.32601 4.129644,1.4583 5.848064,0.21025 5.719543,0.007 5.610942,8.87107 -0.07921,6.46556 -0.07921,6.46556 -0.94407,7.33006 -0.864857,0.8645 -0.864857,0.8645 -4.583166,0.99679 l -3.718309,0.13229 -1.000786,2.38125 -1.000787,2.38125 2.456905,2.54662 c 2.54122,2.63401 3.052771,3.61776 2.619309,5.03715 -0.103854,0.34007 -2.109459,2.56652 -4.456901,4.94765 -4.566698,4.63225 -5.877467,5.54602 -6.964294,4.85501 z M 18.830913,188.7318 c -4.76287,-3.82162 -10.2654125,-6.56371 -16.3457519,-8.14561 l -2.71604329,-0.70662 1.90107629,-3.76321 c 1.1628676,-2.30192 2.3514103,-5.17714 3.0607953,-7.40443 1.1244898,-3.53061 1.1918633,-3.65991 2.2180498,-4.25655 1.3557065,-0.78823 3.4650208,-1.40152 5.5577848,-1.61593 3.779478,-0.38722 8.322239,1.27535 11.184194,4.09322 2.469269,2.43123 3.764101,4.983 4.308314,8.49054 0.774827,4.99388 -1.849207,10.98776 -6.019599,13.75012 -0.676936,0.44838 -1.309928,0.81524 -1.406652,0.81524 -0.09672,0 -0.8807,-0.56555 -1.742168,-1.25677 z m -43.414697,-1.15722 c -3.41244,-0.40841 -6.839691,-2.27415 -10.153494,-5.52738 -6.313657,-6.19825 -10.533002,-16.27111 -11.337396,-27.06581 -1.210024,-16.23809 7.362748,-28.43194 20.939133,-29.78365 9.535428,-0.94938 18.4244598,3.96635 22.793723,12.60518 4.79638,9.48332 3.8024833,24.35876 -2.4084069,36.04607 -1.6071189,3.02419 -3.2394262,5.29748 -5.4826751,7.63564 -4.554154,4.74686 -9.178039,6.70906 -14.350884,6.08995 z m -38.052595,-31.95157 c -1.2245,-0.76659 -8.000767,-7.75177 -8.31068,-8.56691 -0.519408,-1.36614 -0.06505,-2.29156 2.364899,-4.81674 2.299222,-2.38933 2.299222,-2.38933 1.60896,-3.8601 -0.379645,-0.80892 -0.828749,-1.85072 -0.998009,-2.3151 -0.307747,-0.84434 -0.307747,-0.84434 -3.49328,-0.84434 -5.340524,0 -5.327099,0.0196 -5.327099,-7.79302 0,-7.92804 0.107092,-8.08198 5.622366,-8.08198 h 2.993528 l 0.946589,-2.35822 0.946589,-2.35823 -2.107811,-2.07354 c -2.436987,-2.39737 -3.007268,-3.42604 -2.593838,-4.67875 0.382068,-1.15767 8.084906,-8.833991 9.145185,-9.113696 1.399699,-0.369244 2.007887,-0.05176 4.477406,2.337276 2.425204,2.34616 2.425204,2.34616 3.738092,1.73789 0.722089,-0.33455 1.75779,-0.7551 2.301558,-0.93456 0.98867,-0.32629 0.98867,-0.32629 0.98867,-3.356976 0,-5.624094 0.140102,-5.717948 8.370427,-5.607345 5.961439,0.08011 5.961439,0.08011 6.733006,0.944183 0.766961,0.858912 0.771567,0.884233 0.771567,4.242162 v 3.378096 l 2.368521,0.93625 2.368519,0.93625 1.930961,-1.94502 c 2.176386,-2.192236 3.634893,-3.035157 4.841375,-2.797995 0.976651,0.191983 8.344413,7.338295 9.008483,8.737715 0.726332,1.53063 0.376298,2.31152 -2.194176,4.895 -2.576103,2.58913 -2.442676,1.9937 -1.15954,5.17458 l 0.565701,1.40235 -1.655027,-0.21173 c -0.910262,-0.11645 -3.213402,-0.19962 -5.118087,-0.18482 -3.463063,0.0269 -3.463063,0.0269 -4.228261,-1.18262 -1.963431,-3.10352 -5.94145,-5.93825 -9.944651,-7.08656 -2.137505,-0.61314 -2.710246,-0.67104 -5.472568,-0.55329 -3.223874,0.13743 -4.716661,0.51825 -7.48819,1.91032 -4.34825,2.184 -7.988446,6.8426 -9.101459,11.64774 -0.537748,2.32159 -0.534523,6.36455 0.0068,8.46667 0.929242,3.60883 3.459967,7.4885 6.33674,9.71438 1.377354,1.06571 1.377354,1.06571 1.031014,2.81942 -0.190486,0.96453 -0.425439,3.09315 -0.522115,4.73026 -0.09668,1.63711 -0.238406,2.97656 -0.314954,2.97656 -0.07655,0 -0.533106,-0.14245 -1.014574,-0.31655 -0.875395,-0.31654 -0.875395,-0.31654 -3.356582,2.11667 -2.735556,2.68267 -3.440621,2.95187 -5.066008,1.93432 z m 10.586896,-19.22303 c -2.339119,-2.40677 -3.575438,-5.49689 -3.575438,-8.93662 0,-7.40838 5.852663,-13.39483 13.107432,-13.40706 4.074121,-0.007 7.389324,1.52991 10.386042,4.81451 0.607015,0.66532 0.607015,0.66532 -1.058333,1.27507 -7.143044,2.61535 -12.626063,7.62929 -16.113623,14.7351 -0.734269,1.49605 -1.389872,2.72009 -1.456896,2.72009 -0.06702,0 -0.647157,-0.54049 -1.289184,-1.20109 z"
         id="path2526" />
      <path
         style="fill:#ff0000;stroke-width:0.264583"
         d="m -70.089042,227.86528 c -3.073509,-1.06639 -4.611048,-3.10979 -4.785828,-6.36039 -0.103417,-1.92339 -0.02862,-2.24796 1.640288,-7.11811 2.052349,-5.98908 3.288363,-8.69515 5.49659,-12.034 1.9332,-2.923 6.595646,-7.6633 9.467238,-9.62531 4.381998,-2.994 10.006245,-5.26447 15.120218,-6.10393 2.582818,-0.42396 2.582818,-0.42396 4.078102,0.87522 3.828707,3.32659 6.678341,5.03944 10.302722,6.19273 2.890285,0.91971 7.745185,1.04115 10.851288,0.27145 4.092239,-1.01407 8.325128,-3.41775 11.5739098,-6.57236 1.2585304,-1.22204 1.2585304,-1.22204 3.9876864,-0.7603 11.8017187,1.99671 21.7284358,9.34014 27.0324798,19.99766 1.439976,2.89337 4.894919,13.01092 4.89512,14.335 5.29e-4,2.65013 -1.760106,5.4536 -4.170024,6.64045 -1.253792,0.61747 -1.253792,0.61747 -47.688168,0.67687 -44.050061,0.0564 -46.504581,0.0351 -47.801622,-0.41498 z M 33.092405,208.30104 c -0.17323,-0.11014 -0.746135,-1.20965 -1.273122,-2.44335 -1.667864,-3.90453 -3.663236,-7.2057 -6.449684,-10.67042 -1.356281,-1.68643 -1.422025,-1.83145 -0.943388,-2.08095 0.282972,-0.1475 1.527339,-1.29629 2.765258,-2.55287 2.466383,-2.50354 4.131398,-5.34905 4.897676,-8.37009 2.498788,-9.85147 -2.933139,-19.70703 -12.704689,-23.0511 -1.86322,-0.63764 -2.52852,-0.72659 -5.55625,-0.74289 -2.612398,-0.014 -3.812291,0.0966 -4.9893777,0.46017 -0.8523843,0.26327 -1.5941516,0.43432 -1.64837,0.3801 -0.054219,-0.0542 0.039505,-1.79573 0.208272,-3.87002 0.3362193,-4.13242 0.097414,-8.08123 -0.7364227,-12.17733 -0.4357317,-2.14046 -0.4344644,-2.23735 0.033713,-2.57969 0.6445382,-0.47129 12.7096264,-0.51553 13.7306084,-0.0503 1.345562,0.61308 1.592773,1.3762 1.735952,5.35874 0.132292,3.67973 0.132292,3.67973 1.458302,4.12964 0.729305,0.24745 1.844145,0.71425 2.477423,1.03732 1.151411,0.58741 1.151411,0.58741 3.861155,-2.07912 4.045746,-3.98123 4.128032,-3.96056 10.636218,2.67148 3.904311,3.97861 4.400931,4.78388 3.91418,6.3468 -0.10591,0.34007 -1.305547,1.75415 -2.665857,3.1424 l -2.473293,2.52408 0.888537,2.10613 c 0.488696,1.15837 0.958913,2.31448 1.044924,2.56914 0.13784,0.40811 0.550643,0.46302 3.48048,0.46302 5.930376,0 5.954609,0.0353 5.949032,8.65661 -0.0042,6.48749 -0.07156,6.8643 -1.404131,7.85434 -0.653409,0.48546 -1.192125,0.56622 -4.317171,0.64721 -3.361593,0.0871 -3.584247,0.12583 -3.803664,0.66146 -0.128183,0.31291 -0.587658,1.40021 -1.021056,2.41623 l -0.787998,1.8473 2.475767,2.5514 c 2.561984,2.64024 3.073231,3.61731 2.638171,5.04193 -0.103854,0.34007 -2.109459,2.56652 -4.456901,4.94765 -4.566698,4.63225 -5.877467,5.54602 -6.964294,4.85501 z M 18.830913,188.7318 c -4.91182,-3.94113 -11.6061647,-7.15736 -17.7773357,-8.54092 -1.39754505,-0.31333 -1.39754505,-0.31333 -0.69702626,-1.50868 1.61221746,-2.75103 3.12897846,-6.18807 4.31911136,-9.78725 1.4239399,-4.30626 1.4420215,-4.32778 4.5223352,-5.38221 2.3087994,-0.79032 6.3565774,-0.86003 8.4666664,-0.1458 7.152048,2.42084 11.267308,8.7524 10.311784,15.86526 -0.522155,3.88691 -2.961426,7.93063 -5.996715,9.94113 -0.676936,0.44838 -1.309928,0.81524 -1.406652,0.81524 -0.09672,0 -0.8807,-0.56555 -1.742168,-1.25677 z m -43.264204,-1.16163 c -3.469045,-0.3502 -6.93442,-2.20929 -10.28772,-5.5191 -7.633777,-7.53479 -12.22097,-20.95504 -11.33782,-33.16983 1.012619,-14.00542 10.455,-23.70885 23.109953,-23.74885 15.7728022,-0.0499 25.7222973,13.79697 23.28319875,32.40348 -1.32077623,10.07545 -5.49024985,19.14496 -11.40432775,24.8069 -4.262411,4.08069 -8.45938,5.72245 -13.363284,5.2274 z m -38.203088,-31.94716 c -1.2245,-0.76659 -8.000767,-7.75177 -8.31068,-8.56691 -0.51082,-1.34356 -0.06699,-2.24552 2.35689,-4.78976 2.302006,-2.41631 2.302006,-2.41631 1.614356,-3.88708 -0.378207,-0.80892 -0.826136,-1.85072 -0.995396,-2.3151 -0.307747,-0.84434 -0.307747,-0.84434 -3.49328,-0.84434 -5.340524,0 -5.327099,0.0196 -5.327099,-7.79302 0,-7.92804 0.107092,-8.08198 5.622366,-8.08198 h 2.993528 l 0.946589,-2.35822 0.946589,-2.35823 -2.107811,-2.07354 c -2.436987,-2.39737 -3.007268,-3.42604 -2.593838,-4.67875 0.382068,-1.15767 8.084906,-8.833991 9.145185,-9.113696 1.401997,-0.36985 2.007764,-0.05188 4.506651,2.365566 2.454449,2.37446 2.454449,2.37446 3.734575,1.73283 0.704069,-0.3529 1.726609,-0.78618 2.272312,-0.96286 0.992188,-0.32122 0.992188,-0.32122 0.992188,-3.351906 0,-5.606935 0.175244,-5.722728 8.486511,-5.607504 5.790062,0.08027 5.790062,0.08027 6.52313,0.813133 0.716867,0.716665 0.734962,0.810591 0.818793,4.249902 l 0.08572,3.517045 2.324468,0.91883 2.324468,0.91884 2.35231,-2.1899 c 2.349918,-2.187679 3.355234,-2.734191 4.601247,-2.501346 0.846905,0.158262 8.279426,7.447666 8.87621,8.705296 0.726332,1.53063 0.376298,2.31152 -2.194176,4.895 -2.575791,2.58881 -2.442271,1.99488 -1.161915,5.16855 l 0.563324,1.39633 -1.784943,-0.20571 c -0.981718,-0.11313 -3.287675,-0.1877 -5.124355,-0.1657 -3.339414,0.04 -3.339414,0.04 -3.888586,-0.92605 -1.67862,-2.95282 -5.779979,-6.023 -9.837624,-7.3642 -2.074072,-0.68556 -7.991769,-0.6833 -10.054167,0.004 -6.361362,2.11943 -10.89338,6.91411 -12.321364,13.03549 -0.535466,2.2954 -0.532048,6.34783 0.0071,8.44009 0.944941,3.66687 3.877512,8.05799 6.677195,9.99817 1.02977,0.71363 1.02977,0.71363 0.564744,3.42752 -0.255764,1.49264 -0.469282,3.63662 -0.474485,4.76441 -0.0052,1.12779 -0.0903,2.05052 -0.189113,2.05052 -0.09881,0 -0.573581,-0.14245 -1.055048,-0.31655 -0.875395,-0.31654 -0.875395,-0.31654 -3.356583,2.11667 -2.735556,2.68267 -3.440621,2.95187 -5.066008,1.93432 z m 10.764428,-19.03147 c -7.090964,-7.09096 -3.60238,-19.5853 6.179899,-22.13326 4.508643,-1.17435 9.333521,0.17276 12.660495,3.53481 l 1.517203,1.5332 -1.670389,0.60491 c -7.083036,2.565 -12.629242,7.64019 -16.11866,14.74978 -0.734269,1.49605 -1.38543,2.72009 -1.447026,2.72009 -0.0616,0 -0.56628,-0.45429 -1.121522,-1.00953 z"
         id="path2524" />
      <path
         style="fill:#ff0000;stroke-width:0.264583"
         d="m -70.089042,227.86528 c -3.01091,-1.04467 -4.590897,-3.09723 -4.788559,-6.22083 -0.108165,-1.70928 -1.24e-4,-2.25756 1.128471,-5.72672 1.600295,-4.91909 3.312318,-9.12011 4.650299,-11.41105 5.506453,-9.42835 15.215325,-16.12133 25.939196,-17.88164 2.573719,-0.42247 2.573719,-0.42247 4.248489,1.03053 5.498896,4.77077 9.461921,6.52152 15.30418,6.76094 2.840559,0.11641 3.648311,0.0517 5.688542,-0.45556 4.166074,-1.03585 8.2783418,-3.37034 11.5739098,-6.57037 1.2585304,-1.22204 1.2585304,-1.22204 4.0801027,-0.74466 11.7531835,1.9885 21.6360855,9.32463 26.9524915,20.00699 1.430215,2.87376 4.882491,12.99158 4.882692,14.31003 5.29e-4,2.65013 -1.760106,5.4536 -4.170024,6.64045 -1.253792,0.61747 -1.253792,0.61747 -47.688168,0.67687 -44.050061,0.0564 -46.504581,0.0351 -47.801622,-0.41498 z M 33.231007,208.33051 c -0.250928,-0.066 -0.743664,-0.87909 -1.143407,-1.88678 -1.441389,-3.63352 -3.898652,-7.75083 -6.718001,-11.25646 -1.356281,-1.68643 -1.422025,-1.83145 -0.943388,-2.08095 0.282972,-0.1475 1.527339,-1.29629 2.765258,-2.55287 3.463386,-3.51557 5.127049,-7.23092 5.470031,-12.21585 0.579239,-8.4187 -5.00474,-16.47787 -13.335768,-19.24707 -1.772687,-0.58923 -2.534711,-0.68647 -5.497526,-0.70153 -2.608898,-0.0132 -3.813871,0.0981 -4.9893777,0.46087 -0.8523843,0.2631 -1.5932917,0.43485 -1.6464598,0.38168 -0.053168,-0.0532 0.042278,-1.77635 0.2121033,-3.82929 0.3386746,-4.09414 0.094895,-8.10804 -0.7421642,-12.21997 -0.4357317,-2.14046 -0.4344644,-2.23735 0.033713,-2.57969 0.6445382,-0.47129 12.7096264,-0.51553 13.7306084,-0.0503 1.345562,0.61308 1.592773,1.3762 1.735952,5.35874 0.132292,3.67973 0.132292,3.67973 1.458302,4.12964 0.729305,0.24745 1.844145,0.71425 2.477423,1.03732 1.151411,0.58741 1.151411,0.58741 3.861155,-2.07912 4.035449,-3.9711 4.147973,-3.94376 10.518817,2.55524 1.997226,2.0374 3.761296,4.04623 3.920157,4.46407 0.572918,1.50688 0.115832,2.43017 -2.542701,5.13611 l -2.485025,2.52934 0.888537,2.10613 c 0.488696,1.15837 0.958913,2.31448 1.044924,2.56914 0.13784,0.40811 0.550643,0.46302 3.48048,0.46302 5.930376,0 5.954609,0.0353 5.949032,8.65661 -0.0042,6.48749 -0.07156,6.8643 -1.404131,7.85434 -0.653409,0.48546 -1.192125,0.56622 -4.317171,0.64721 -3.570603,0.0925 -3.570603,0.0925 -3.856961,0.79375 -0.157496,0.38567 -0.627412,1.46221 -1.044263,2.39231 l -0.757905,1.6911 2.485925,2.56187 c 2.663769,2.74514 3.076612,3.56796 2.566186,5.11456 -0.337143,1.02155 -8.931678,9.71117 -9.604907,9.71117 -0.233069,0 -0.582327,0.0454 -0.776129,0.10084 -0.193805,0.0555 -0.550796,0.0486 -0.793319,-0.0152 z M 18.722998,188.62419 c -4.986663,-3.92565 -11.5623795,-7.06412 -17.6694207,-8.43331 -1.39754505,-0.31333 -1.39754505,-0.31333 -0.69702626,-1.50868 1.61221746,-2.75103 3.12897846,-6.18807 4.31911136,-9.78725 1.4170184,-4.28533 1.469779,-4.3493 4.3900435,-5.32261 7.4146411,-2.47128 15.6543851,1.57926 18.2651171,8.97886 1.764027,4.99979 0.399251,11.11846 -3.306578,14.82429 -1.313476,1.31347 -3.042118,2.61996 -3.449164,2.60683 -0.07276,-0.002 -0.906198,-0.6135 -1.852083,-1.35813 z m -45.515817,-1.51348 c -7.183626,-2.29922 -13.402358,-9.77113 -16.915684,-20.32447 -3.344354,-10.04578 -3.254007,-20.83613 0.236832,-28.28539 3.066417,-6.54356 8.349308,-10.99722 15.078207,-12.71145 4.592231,-1.16989 9.746605,-0.82664 14.167245,0.94347 10.8747562,4.35447 16.4736122,16.20924 14.55778279,30.82403 -1.93046089,14.72639 -10.05966229,27.05075 -19.57627479,29.67881 -1.86685,0.51554 -5.747616,0.45127 -7.548108,-0.125 z m -35.84356,-31.48477 c -0.436563,-0.27169 -2.490391,-2.22261 -4.564063,-4.33538 -4.87494,-4.96684 -4.898862,-5.1169 -1.411925,-8.85676 l 2.325613,-2.4943 -0.987595,-2.29369 -0.987596,-2.2937 -3.493739,-0.13229 c -3.49374,-0.13229 -3.49374,-0.13229 -4.264822,-0.99636 -0.771082,-0.86407 -0.771082,-0.86407 -0.770093,-6.74688 0.0014,-8.04796 0.05856,-8.12725 5.865471,-8.13028 2.823752,-0.001 2.823752,-0.001 3.150043,-0.99015 0.17946,-0.54377 0.602924,-1.58556 0.941031,-2.3151 0.614741,-1.32644 0.614741,-1.32644 -1.614976,-3.57539 -2.48524,-2.50669 -2.945859,-3.34507 -2.530045,-4.605 0.377195,-1.14291 8.091132,-8.821556 9.140095,-9.098276 1.401997,-0.36985 2.007764,-0.05188 4.506651,2.365566 2.454449,2.37446 2.454449,2.37446 3.734575,1.73283 0.704069,-0.3529 1.726609,-0.78618 2.272312,-0.96286 0.992188,-0.32122 0.992188,-0.32122 0.992188,-3.351906 0,-5.606935 0.175244,-5.722728 8.486511,-5.607504 5.790062,0.08027 5.790062,0.08027 6.52313,0.813133 0.716862,0.71666 0.734962,0.810612 0.818787,4.249658 l 0.08572,3.516799 2.366807,0.95003 2.366806,0.95004 2.502001,-2.35543 c 2.397916,-2.257432 2.55243,-2.355417 3.714324,-2.355417 1.204785,0 1.236797,0.024 5.145966,3.858217 5.766702,5.65614 5.849004,6.02088 2.188631,9.69977 -2.575791,2.58881 -2.442271,1.99488 -1.161915,5.16855 l 0.563324,1.39633 -1.784943,-0.20571 c -0.981718,-0.11313 -3.287675,-0.1877 -5.124355,-0.1657 -3.339414,0.04 -3.339414,0.04 -3.888586,-0.92605 -1.069205,-1.88081 -3.922784,-4.51738 -6.398041,-5.91147 -2.78806,-1.57027 -4.329356,-1.92002 -8.466667,-1.92123 -3.507705,-0.001 -4.001844,0.0597 -5.766472,0.70879 -10.696463,3.93451 -15.209167,15.92413 -9.700877,25.77388 1.053695,1.88418 3.275281,4.40456 4.835366,5.4857 1.036555,0.71833 1.036555,0.71833 0.67585,2.3604 -0.198388,0.90313 -0.438843,3.04105 -0.534345,4.75092 -0.0955,1.70987 -0.236308,3.10885 -0.312901,3.10885 -0.07659,0 -0.533187,-0.14245 -1.014655,-0.31655 -0.875395,-0.31654 -0.875395,-0.31654 -3.356582,2.11667 -2.734522,2.68165 -3.43777,2.95057 -5.066009,1.93725 z m 10.938621,-18.88476 c -1.094322,-1.00241 -2.575254,-3.26219 -3.251113,-4.96094 -0.620366,-1.55927 -0.840828,-5.3358 -0.418863,-7.17518 2.379311,-10.37159 14.937178,-14.08898 22.336177,-6.61197 l 1.517203,1.5332 -1.670389,0.60491 c -7.07414,2.56178 -12.621564,7.62455 -16.083693,14.67853 -0.753501,1.53524 -1.39713,2.79134 -1.430289,2.79134 -0.03316,0 -0.482723,-0.38695 -0.999033,-0.85989 z"
         id="path2522" />
      <path
         style="fill:#ff0000;stroke-width:0.264583"
         d="m -70.089042,227.86528 c -3.010382,-1.04448 -4.590404,-3.09679 -4.789271,-6.22083 -0.110357,-1.73363 -0.0053,-2.24104 1.267293,-6.12359 1.588433,-4.84597 3.234947,-8.83784 4.62023,-11.20147 5.416081,-9.24113 15.210234,-15.95094 25.827054,-17.69368 2.569623,-0.4218 2.569623,-0.4218 4.550228,1.30558 3.362251,2.93238 6.230752,4.61095 9.843796,5.76035 2.820874,0.89739 7.71819,1.03233 10.792463,0.29738 4.076404,-0.97454 8.0628124,-3.21924 11.5164875,-6.48481 1.4068663,-1.33024 1.4068663,-1.33024 4.2123943,-0.85558 11.7310194,1.98475 21.6263092,9.33452 26.9387172,20.00884 0.651909,1.3099 2.031635,4.89879 3.066055,7.97531 1.68402,5.00853 1.86526,5.74386 1.732584,7.02936 -0.263472,2.55281 -1.82807,4.80936 -4.128725,5.9547 -1.213308,0.60402 -1.213308,0.60402 -47.647684,0.66342 -44.050061,0.0564 -46.504581,0.0351 -47.801622,-0.41498 z M 33.231007,208.32823 c -0.251952,-0.065 -0.742037,-0.8727 -1.143407,-1.8845 -1.443689,-3.63932 -3.953074,-7.8489 -6.709992,-11.25627 -1.364118,-1.68596 -1.4306,-1.83132 -0.951733,-2.08095 0.283157,-0.14761 1.527675,-1.29648 2.765594,-2.55306 3.463386,-3.51557 5.127049,-7.23092 5.470031,-12.21585 0.371869,-5.40476 -1.939722,-11.13716 -6.011043,-14.90649 -5.193557,-4.80831 -11.889396,-6.29965 -19.0155014,-4.23522 -0.6271763,0.18169 -0.634193,0.16451 -0.455086,-1.114 0.6568176,-4.68849 0.4537658,-10.29309 -0.5444119,-15.02674 -0.4233387,-2.00758 -0.421312,-2.10019 0.053512,-2.44739 0.6510894,-0.47609 12.7076683,-0.52479 13.7376593,-0.0555 1.334741,0.60815 1.583409,1.37777 1.731428,5.35876 0.136816,3.67976 0.136816,3.67976 1.462826,4.12965 0.729305,0.24743 1.847302,0.71583 2.48444,1.04087 1.15843,0.59099 1.15843,0.59099 3.734758,-1.97567 2.382549,-2.37361 2.669325,-2.57714 3.812759,-2.70602 1.236435,-0.13937 1.236435,-0.13937 5.983883,4.58158 5.020485,4.99245 5.361816,5.50411 4.754793,7.12759 -0.162666,0.43505 -1.360342,1.86395 -2.661507,3.17533 l -2.365751,2.38433 0.891765,2.11359 c 0.490469,1.16247 0.962136,2.32194 1.048147,2.5766 0.137898,0.40828 0.551484,0.46302 3.498144,0.46302 5.864238,0 5.936874,0.1058 5.931368,8.63895 -0.0042,6.5064 -0.07113,6.88164 -1.404131,7.872 -0.653584,0.48559 -1.192146,0.56622 -4.324074,0.64738 -3.577503,0.0927 -3.577503,0.0927 -3.9574,1.05833 -0.208944,0.5311 -0.697254,1.65283 -1.085133,2.49273 -0.705236,1.52711 -0.705236,1.52711 1.559581,3.62667 2.575928,2.38797 3.268684,3.5408 2.999928,4.99227 -0.147555,0.79692 -0.950756,1.74392 -4.578424,5.39814 -2.419713,2.43743 -4.642215,4.5007 -4.938898,4.58506 -0.950103,0.27015 -1.323136,0.31111 -1.774124,0.1948 z M 18.722998,188.62419 c -4.986663,-3.92565 -11.5623795,-7.06412 -17.6694207,-8.43331 -1.39754505,-0.31333 -1.39754505,-0.31333 -0.69702626,-1.50868 1.59888766,-2.72829 3.11360616,-6.15318 4.32629476,-9.78206 1.4389233,-4.30588 1.4850719,-4.36198 4.3828601,-5.3278 7.7530591,-2.58407 16.2416071,1.93895 18.5417811,9.87977 0.63591,2.19533 0.580083,5.82253 -0.124206,8.06979 -0.551704,1.76039 -1.994657,4.39779 -3.02423,5.52763 -0.636394,0.69837 -3.578511,2.94211 -3.846931,2.93378 -0.09313,-0.003 -0.943237,-0.61449 -1.889122,-1.35912 z m -45.525247,-1.52842 c -11.520636,-3.62553 -20.401799,-21.25243 -19.236801,-38.18026 0.962583,-13.9867 10.455338,-23.7499 23.111762,-23.77021 6.458749,-0.0104 11.865139,2.2093 16.301482,6.6928 6.93958449,7.01334 9.1041567,18.89187 5.78697744,31.75718 -3.12958964,12.13776 -10.35410344,21.41689 -18.40588244,23.64043 -1.832833,0.50614 -5.734067,0.43391 -7.557538,-0.13994 z m -35.83413,-31.46983 c -0.436563,-0.27169 -2.471929,-2.20601 -4.523037,-4.29849 -4.982022,-5.08251 -5.001743,-5.21994 -1.286718,-8.96647 l 2.232613,-2.25155 -1.024212,-2.37865 -1.024212,-2.37867 -3.466152,-0.13229 c -3.354769,-0.12804 -3.489691,-0.15585 -4.198675,-0.86538 -0.732524,-0.7331 -0.732524,-0.7331 -0.805401,-6.74688 -0.06783,-5.59741 -0.03673,-6.07219 0.449258,-6.85744 0.685782,-1.10808 1.807428,-1.40197 5.357787,-1.40382 2.823752,-0.001 2.823752,-0.001 3.150043,-0.99015 0.17946,-0.54377 0.602924,-1.58556 0.941031,-2.3151 0.614741,-1.32644 0.614741,-1.32644 -1.630093,-3.58204 -2.502673,-2.51468 -2.983271,-3.4886 -2.394914,-4.85325 0.196495,-0.45576 2.195174,-2.64435 4.441508,-4.86354 4.084245,-4.034897 4.084245,-4.034897 5.333647,-4.034897 1.215229,0 1.317185,0.06557 3.727714,2.397537 2.478312,2.39755 2.478312,2.39755 3.758438,1.75592 0.704069,-0.3529 1.726609,-0.78618 2.272312,-0.96286 0.992188,-0.32122 0.992188,-0.32122 0.992188,-3.351906 0,-5.517821 0.200459,-5.65971 7.995148,-5.659113 7.692358,5.9e-4 7.869446,0.122727 7.875952,5.432015 l 0.0039,3.183464 2.436697,0.97809 2.436696,0.97809 2.422456,-2.37562 c 2.231491,-2.188344 2.505565,-2.375617 3.476731,-2.375617 1.401601,0 2.326976,0.707178 6.470785,4.945007 4.647089,4.75253 4.667131,4.94203 0.924936,8.74551 -2.399925,2.43922 -2.285627,1.86531 -1.004158,5.04205 l 0.565701,1.40235 -1.655027,-0.21173 c -0.910262,-0.11645 -3.219336,-0.19479 -5.131274,-0.17409 -3.313351,0.0359 -3.488566,0.0111 -3.739121,-0.52917 -0.832305,-1.7946 -3.994512,-4.77945 -6.675255,-6.30085 -2.768346,-1.57112 -4.324379,-1.92516 -8.466667,-1.92636 -3.327447,-9.8e-4 -4.064635,0.0795 -5.55625,0.60639 -5.650037,1.99586 -10.150923,6.74827 -11.649133,12.30013 -0.705463,2.6142 -0.765751,6.62246 -0.135992,9.04139 0.978029,3.75663 3.835815,8.02906 6.69671,10.01166 1.049237,0.72712 1.049237,0.72712 0.688532,2.36919 -0.198388,0.90313 -0.438843,3.04105 -0.534345,4.75092 -0.0955,1.70987 -0.236308,3.10885 -0.312901,3.10885 -0.07659,0 -0.533187,-0.14245 -1.014655,-0.31655 -0.875395,-0.31654 -0.875395,-0.31654 -3.356582,2.11667 -2.734522,2.68165 -3.43777,2.95057 -5.066009,1.93725 z m 10.938621,-18.88476 c -1.090216,-0.99865 -2.561185,-3.25375 -3.235941,-4.96094 -0.624821,-1.58085 -0.852805,-5.34973 -0.434035,-7.17518 1.142152,-4.97872 4.886703,-8.88265 9.72177,-10.13554 4.53441,-1.17498 9.279461,0.15346 12.62538,3.53466 l 1.528172,1.54429 -1.416775,0.46435 c -6.809386,2.23181 -12.830749,7.672 -16.366578,14.78692 -0.765683,1.54073 -1.412647,2.80133 -1.437699,2.80133 -0.02505,0 -0.467984,-0.38695 -0.984294,-0.85989 z"
         id="path2520" />
      <path
         style="fill:#ff0000;stroke-width:0.264583"
         d="m -69.699905,227.98475 c -1.789533,-0.48443 -3.172924,-1.49982 -4.178601,-3.06703 -0.731968,-1.14067 -0.898483,-1.68577 -0.997791,-3.26635 -0.106399,-1.69342 0.0012,-2.26658 1.001844,-5.33676 3.312871,-10.16453 5.508484,-14.1294 10.700848,-19.32377 5.559057,-5.5612 12.426199,-9.12028 19.994282,-10.36257 2.554034,-0.41924 2.554034,-0.41924 4.830856,1.54197 5.094634,4.38842 9.849535,6.30378 15.664172,6.3098 5.775857,0.006 10.957634,-2.16077 15.817697,-6.61413 1.7797305,-1.6308 1.7797305,-1.6308 3.1674754,-1.45521 10.4897161,1.3273 20.0893316,7.27773 26.0470816,16.14558 1.90392,2.8339 3.497342,6.39258 5.411806,12.08649 1.680795,4.99895 1.861884,5.73403 1.729224,7.01937 -0.263472,2.55281 -1.82807,4.80936 -4.128725,5.9547 -1.213308,0.60402 -1.213308,0.60402 -47.515392,0.65417 -36.756291,0.0398 -46.558282,-0.0192 -47.544777,-0.28626 z M 33.23373,208.33103 c -0.241025,-0.0635 -0.70744,-0.79349 -1.036476,-1.62219 -1.538275,-3.87426 -4.066869,-8.152 -6.810346,-11.52138 -1.313265,-1.61288 -1.424652,-1.84124 -1.011034,-2.07271 0.788498,-0.44126 3.156151,-2.6341 4.214992,-3.90377 1.250551,-1.49955 2.957391,-4.92342 3.503356,-7.02762 1.760091,-6.78355 -0.402833,-14.13107 -5.545788,-18.83922 -2.137664,-1.95694 -4.487871,-3.34596 -7.163978,-4.23404 -1.836666,-0.60951 -2.571671,-0.70482 -5.55625,-0.7205 -2.610207,-0.0137 -3.813281,0.0973 -4.9893777,0.46027 -0.8523843,0.2631 -1.601343,0.4268 -1.6643509,0.36379 -0.063008,-0.063 0.023522,-1.46904 0.1923018,-3.12451 0.3877734,-3.8036 0.160917,-8.61649 -0.5795565,-12.29559 -0.5519791,-2.74255 -0.5549953,-2.85182 -0.088143,-3.19319 0.6416966,-0.46922 12.7104823,-0.51151 13.7275493,-0.0481 1.334741,0.60815 1.583409,1.37777 1.731428,5.35876 0.136816,3.67976 0.136816,3.67976 1.462826,4.12965 0.729305,0.24743 1.847302,0.71583 2.48444,1.04087 1.15843,0.59099 1.15843,0.59099 3.772202,-2.01297 2.605505,-2.59573 2.617933,-2.60397 3.928866,-2.60397 1.315096,0 1.315096,0 5.948006,4.62724 4.893249,4.88726 5.238282,5.40938 4.637119,7.01718 -0.162666,0.43505 -1.373497,1.87716 -2.690736,3.20468 -2.266775,2.28448 -2.376836,2.44736 -2.055987,3.04271 0.186447,0.34597 0.659675,1.46246 1.051621,2.48111 l 0.712629,1.85208 3.672083,0.13229 c 5.714175,0.20586 5.658051,0.12009 5.652556,8.63895 -0.0042,6.5064 -0.07113,6.88164 -1.404131,7.872 -0.653584,0.48559 -1.192146,0.56622 -4.324074,0.64738 -3.577503,0.0927 -3.577503,0.0927 -3.9574,1.05833 -0.208944,0.5311 -0.699661,1.65787 -1.090483,2.50393 l -0.710583,1.53829 2.551371,2.50621 c 4.045353,3.97374 4.005255,4.16531 -2.145194,10.24892 -2.451536,2.4249 -4.641649,4.40891 -4.866918,4.40891 -0.225266,0 -0.568142,0.0454 -0.761944,0.10084 -0.193805,0.0555 -0.549571,0.0489 -0.790596,-0.0146 z M 19.138857,188.91908 c -4.649926,-3.84248 -12.3004454,-7.55519 -17.9533558,-8.71257 -1.53020449,-0.3133 -1.53020449,-0.3133 -1.01326156,-1.1526 1.38016986,-2.24081 3.33823216,-6.64552 4.50112086,-10.12539 1.4403917,-4.31027 1.5050003,-4.38802 4.4624626,-5.36998 6.2268839,-2.06751 13.0719539,0.42807 16.7398569,6.10303 1.488999,2.30376 2.142861,4.57539 2.161104,7.50802 0.0222,3.56715 -0.835671,6.1472 -3.013798,9.0641 -0.902761,1.20896 -3.896743,3.75488 -4.415716,3.75488 -0.0958,0 -0.756586,-0.48127 -1.468413,-1.06949 z m -45.941106,-1.82331 c -8.506809,-2.67708 -15.779922,-13.00565 -18.550538,-26.34366 -0.519296,-2.49993 -0.605288,-3.71272 -0.609704,-8.59896 -0.0054,-5.93902 0.08192,-6.62597 1.358861,-10.69521 2.52504,-8.04654 8.770305,-13.96102 16.669192,-15.78629 3.302161,-0.76306 8.732647,-0.62914 11.600143,0.28606 8.5804538,2.73856 14.2127108,9.20173 16.34135526,18.75212 0.74440258,3.33986 0.79702027,10.74263 0.10367963,14.58707 -2.57665279,14.28709 -10.30228789,25.43873 -19.35545089,27.93881 -1.832833,0.50614 -5.734067,0.43391 -7.557538,-0.13994 z m -35.83413,-31.45494 c -0.436563,-0.27988 -2.471929,-2.2209 -4.523037,-4.31338 -4.982022,-5.08251 -5.001743,-5.21994 -1.286718,-8.96647 l 2.232613,-2.25155 -1.024212,-2.37865 -1.024212,-2.37867 -3.466152,-0.13229 c -3.354769,-0.12804 -3.489691,-0.15585 -4.198675,-0.86538 -0.732524,-0.7331 -0.732524,-0.7331 -0.805401,-6.74688 -0.06783,-5.59741 -0.03673,-6.07219 0.449258,-6.85744 0.685782,-1.10808 1.807428,-1.40197 5.357787,-1.40382 2.823752,-0.001 2.823752,-0.001 3.150043,-0.99015 0.17946,-0.54377 0.602924,-1.58556 0.941031,-2.3151 0.614741,-1.32644 0.614741,-1.32644 -1.630093,-3.58204 -2.502673,-2.51468 -2.983271,-3.4886 -2.394914,-4.85325 0.196495,-0.45576 2.195174,-2.64435 4.441508,-4.86354 4.084245,-4.034897 4.084245,-4.034897 5.333647,-4.034897 1.215229,0 1.317185,0.06557 3.727714,2.397537 2.478312,2.39755 2.478312,2.39755 3.758438,1.75592 0.704069,-0.3529 1.726609,-0.78618 2.272312,-0.96286 0.992188,-0.32122 0.992188,-0.32122 0.992188,-3.351906 0,-5.517821 0.200459,-5.65971 7.995148,-5.659113 7.702119,5.9e-4 7.869473,0.11686 7.875952,5.471863 0.0038,3.111486 0.02455,3.229546 0.599213,3.402966 0.327422,0.0988 1.411401,0.53331 2.408846,0.96555 l 1.813534,0.7859 2.450306,-2.40293 c 2.259211,-2.215529 2.532526,-2.402927 3.504581,-2.402927 1.401601,0 2.326976,0.707178 6.470785,4.945007 4.642681,4.74802 4.664051,4.94497 0.946587,8.72374 -1.544016,1.56948 -2.084888,2.29227 -1.979915,2.64583 0.07944,0.26756 0.446435,1.23574 0.815552,2.15153 l 0.671124,1.66507 L -18.4,118.62864 c -0.901155,-0.11542 -3.213457,-0.19723 -5.138449,-0.1818 -3.034435,0.0243 -3.518406,-0.03 -3.638431,-0.40814 -0.255112,-0.80378 -2.899551,-3.70931 -4.474544,-4.91632 -3.205059,-2.45623 -6.534912,-3.55932 -10.74433,-3.55932 -3.047153,0 -5.342091,0.5068 -7.811368,1.72502 -6.193784,3.0557 -9.99205,9.13717 -9.989435,15.99424 0.0018,4.77687 1.691322,8.99199 4.92299,12.28232 1.043683,1.06263 2.187556,2.12399 2.541942,2.35859 0.644337,0.42655 0.644337,0.42655 0.198438,3.18147 -0.245245,1.51521 -0.4459,3.66144 -0.4459,4.7694 0,1.10796 -0.08084,2.01447 -0.179653,2.01447 -0.09881,0 -0.577539,-0.14388 -1.063844,-0.31973 -0.884191,-0.31973 -0.884191,-0.31973 -3.218766,2.00403 -1.975036,1.96589 -2.493717,2.34325 -3.367927,2.45029 -0.734766,0.09 -1.262706,-0.0205 -1.827102,-0.38233 z m 10.938621,-18.89965 c -1.134228,-1.03896 -2.601346,-3.31546 -3.236655,-5.02226 -0.633815,-1.70278 -0.836144,-4.8315 -0.444283,-6.87017 0.96601,-5.02567 4.783518,-9.09676 9.732732,-10.37923 4.53441,-1.17498 9.279461,0.15346 12.62538,3.53466 l 1.528172,1.54429 -1.416775,0.46435 c -6.809386,2.23181 -12.830749,7.672 -16.366578,14.78692 -0.765683,1.54073 -1.412647,2.80133 -1.437699,2.80133 -0.02505,0 -0.467984,-0.38695 -0.984294,-0.85989 z"
         id="path2518" />
      <path
         style="fill:#ff0000;stroke-width:0.264583"
         d="m -69.699905,227.98475 c -1.78722,-0.4838 -3.172635,-1.49937 -4.173813,-3.05957 -0.704708,-1.09819 -0.898616,-1.70851 -1.002032,-3.15389 -0.147245,-2.05794 0.06241,-2.90434 2.236433,-9.02856 2.662526,-7.50034 4.851947,-11.14165 9.465712,-15.74276 5.872347,-5.85625 13.235496,-9.52733 21.218554,-10.57903 1.366745,-0.18005 1.366745,-0.18005 3.625075,1.76523 3.622906,3.1207 7.113263,4.97024 11.186544,5.92774 2.788129,0.6554 8.015082,0.39473 10.809137,-0.53907 3.563774,-1.19105 6.7898358,-3.17312 9.8432202,-6.04763 1.3762699,-1.29564 1.3768414,-1.29587 2.778125,-1.11841 8.8780702,1.12434 17.7260918,5.89368 23.3301068,12.5756 3.652253,4.35475 5.533327,7.93973 8.121539,15.47813 1.937997,5.64458 2.155759,7.58904 1.081522,9.65729 -0.825812,1.58994 -1.987328,2.7639 -3.459954,3.49702 -1.213308,0.60402 -1.213308,0.60402 -47.515392,0.65417 -36.756291,0.0398 -46.558282,-0.0192 -47.544777,-0.28626 z M 33.23373,208.33103 c -0.241025,-0.0635 -0.70744,-0.79349 -1.036476,-1.62219 -1.538275,-3.87426 -4.066869,-8.152 -6.810346,-11.52138 -1.313265,-1.61288 -1.424652,-1.84124 -1.011034,-2.07271 0.788498,-0.44126 3.156151,-2.6341 4.214992,-3.90377 1.266735,-1.51896 2.953065,-4.91483 3.555479,-7.15991 0.332007,-1.23732 0.454359,-2.64762 0.436129,-5.02708 -0.02185,-2.85151 -0.123722,-3.599 -0.739222,-5.42396 -1.026364,-3.04317 -2.584919,-5.52581 -4.899962,-7.80521 -3.602255,-3.54679 -7.426262,-5.23036 -12.457705,-5.48467 -2.290829,-0.1158 -3.175014,-0.0413 -5.0063036,0.42179 -1.2232534,0.30934 -2.2631374,0.52339 -2.3108524,0.47567 -0.047718,-0.0477 0.046638,-1.3866 0.2096797,-2.97529 0.3817699,-3.72002 0.1417955,-8.79837 -0.5868406,-12.41866 -0.5558261,-2.76167 -0.5589905,-2.87196 -0.092189,-3.21329 0.3713771,-0.27156 1.948987,-0.35347 6.8081449,-0.35347 8.58928,0 8.429377,-0.10448 8.648227,5.65096 l 0.139422,3.66658 1.616006,0.60664 c 0.888802,0.33365 2.006304,0.80847 2.483334,1.05515 0.867328,0.44851 0.867328,0.44851 3.482206,-2.15655 2.606683,-2.5969 2.618999,-2.60507 3.929972,-2.60507 1.315096,0 1.315096,0 5.948006,4.62724 4.893249,4.88726 5.238282,5.40938 4.637119,7.01718 -0.162666,0.43505 -1.373497,1.87716 -2.690736,3.20468 -2.266775,2.28448 -2.376836,2.44736 -2.055987,3.04271 0.186447,0.34597 0.659675,1.46246 1.051621,2.48111 l 0.712629,1.85208 3.672083,0.13229 c 5.714175,0.20586 5.658051,0.12009 5.652556,8.63895 -0.0042,6.50632 -0.07113,6.8816 -1.404051,7.872 -0.656373,0.48771 -1.188686,0.56567 -4.409329,0.64569 -3.662836,0.091 -3.662836,0.091 -3.833646,0.79375 -0.09395,0.3865 -0.541523,1.51321 -0.994616,2.50378 l -0.823804,1.80104 2.543918,2.56459 c 2.69435,2.71623 3.07472,3.43295 2.594348,4.88849 -0.339354,1.02826 -8.941321,9.71463 -9.620232,9.71463 -0.225266,0 -0.568142,0.0454 -0.761944,0.10084 -0.193805,0.0555 -0.549571,0.0489 -0.790596,-0.0146 z M 19.138857,188.91908 C 14.496353,185.08273 6.8374617,181.36353 1.2059403,180.21075 l -1.50976547,-0.30905 0.92533261,-1.63729 c 1.86379116,-3.29782 3.57976766,-7.40819 4.70426536,-11.26839 0.5702723,-1.95764 0.5708438,-1.95838 2.1038529,-2.73601 1.9159671,-0.97189 5.3322303,-1.61318 7.4139133,-1.39173 5.882593,0.62579 10.913859,4.67502 12.63385,10.16787 0.703992,2.24823 0.757631,5.89734 0.118977,8.09423 -0.927962,3.19208 -2.738027,5.85696 -5.218533,7.683 -0.878009,0.64635 -1.674762,1.17519 -1.770563,1.17519 -0.0958,0 -0.756586,-0.48127 -1.468413,-1.06949 z m -45.941106,-1.82331 c -7.154463,-2.2515 -13.397606,-9.76807 -16.931336,-20.38484 -1.827353,-5.49012 -2.223048,-8.07454 -2.228906,-14.55778 -0.0056,-6.15451 0.166651,-7.35521 1.660269,-11.576 2.742192,-7.74911 9.176073,-13.45103 16.952892,-15.02421 2.714556,-0.54914 8.061343,-0.41896 10.480659,0.25517 8.6520974,2.41085 14.7312462,9.22171 16.87106665,18.90172 0.74300294,3.36116 0.79873742,10.7769 0.10963011,14.58707 -2.58627036,14.29987 -10.30356276,25.43873 -19.35673676,27.93881 -1.832833,0.50614 -5.734067,0.43391 -7.557538,-0.13994 z m -35.83413,-31.45494 c -0.436563,-0.27988 -2.471929,-2.2209 -4.523037,-4.31338 -4.982399,-5.08289 -5.001997,-5.21969 -1.284847,-8.96835 l 2.234485,-2.25342 -0.92205,-2.1122 c -0.507127,-1.16171 -0.923503,-2.26103 -0.925279,-2.44293 -0.0024,-0.24744 -0.868424,-0.33073 -3.43864,-0.33073 -3.421263,0 -3.438967,-0.003 -4.299479,-0.77158 -0.86407,-0.77158 -0.86407,-0.77158 -0.936947,-6.81302 -0.06785,-5.62491 -0.03688,-6.09961 0.449258,-6.8851 0.685782,-1.10808 1.807428,-1.40197 5.357787,-1.40382 2.823752,-0.001 2.823752,-0.001 3.144975,-0.99367 0.176673,-0.5457 0.613158,-1.57456 0.969968,-2.28635 0.648745,-1.29417 0.648745,-1.29417 -1.625026,-3.57852 -2.532621,-2.54441 -3.013819,-3.51361 -2.42385,-4.882 0.196495,-0.45576 2.195174,-2.64435 4.441508,-4.86354 4.084245,-4.034897 4.084245,-4.034897 5.333647,-4.034897 1.214127,0 1.318543,0.06689 3.698348,2.369137 l 2.448946,2.36913 2.301679,-0.97743 2.301679,-0.97742 v -2.987705 c 0,-5.468433 0.211116,-5.61673 7.995148,-5.616134 7.702119,5.9e-4 7.869473,0.11686 7.875952,5.471863 0.0038,3.111486 0.02455,3.229546 0.599213,3.402966 0.327422,0.0988 1.411401,0.53331 2.408846,0.96555 l 1.813534,0.7859 2.450306,-2.40293 c 2.322809,-2.277895 2.509726,-2.402927 3.592293,-2.402927 1.121714,0 1.218615,0.07612 5.457703,4.287137 5.684317,5.64668 5.685349,5.65247 1.708886,9.58139 -2.075281,2.05047 -2.112203,2.10948 -1.75378,2.80259 0.201374,0.38942 0.604877,1.33635 0.896675,2.1043 0.53054,1.39627 0.53054,1.39627 -0.580554,1.1829 -0.611102,-0.11736 -2.883513,-0.22679 -5.0498,-0.24319 -3.938702,-0.0298 -3.938702,-0.0298 -4.630209,-0.97296 -1.644255,-2.24261 -2.110507,-2.74082 -3.825422,-4.08763 -6.729487,-5.28498 -15.854114,-5.16443 -22.475194,0.29695 -4.062504,3.35094 -6.348946,8.25875 -6.3469,13.62351 0.0018,4.77687 1.691322,8.99199 4.92299,12.28232 1.043683,1.06263 2.181569,2.1198 2.528638,2.34927 0.631033,0.41723 0.631033,0.41723 0.198437,3.19477 -0.237927,1.52765 -0.432595,3.67807 -0.432595,4.77872 0,1.10064 -0.08084,2.00117 -0.179653,2.00117 -0.09881,0 -0.577539,-0.14388 -1.063844,-0.31973 -0.884191,-0.31973 -0.884191,-0.31973 -3.218766,2.00403 -1.975036,1.96589 -2.493717,2.34325 -3.367927,2.45029 -0.734766,0.09 -1.262706,-0.0205 -1.827102,-0.38233 z m 10.617171,-19.26616 c -1.871699,-1.84526 -3.306924,-4.9944 -3.516844,-7.71659 -0.313405,-4.06415 0.894344,-7.55306 3.625187,-10.47234 5.077258,-5.42761 13.618227,-5.5092 18.891352,-0.18048 l 1.527101,1.54321 -1.416775,0.46435 c -6.812915,2.23296 -12.969304,7.80598 -16.414073,14.8587 -0.733258,1.50125 -1.359922,2.72955 -1.392586,2.72955 -0.03266,0 -0.619177,-0.55188 -1.303362,-1.2264 z"
         id="path2516" />
      <path
         style="fill:#ff0000;stroke-width:0.264583"
         d="m -69.699905,227.98475 c -1.789533,-0.48443 -3.172924,-1.49982 -4.178601,-3.06703 -0.735137,-1.14561 -0.898859,-1.68499 -1.002727,-3.30347 -0.117309,-1.82793 -0.034,-2.20147 1.51474,-6.79198 2.995974,-8.88012 5.958724,-13.9428 10.859153,-18.55586 5.345192,-5.03174 11.950026,-8.33062 19.209693,-9.59457 l 2.669985,-0.46486 2.278009,1.96224 c 3.642979,3.13799 7.125616,4.98546 11.206221,5.94469 2.788129,0.6554 8.015082,0.39473 10.809137,-0.53907 3.563774,-1.19105 6.7898358,-3.17312 9.8432202,-6.04763 1.3762699,-1.29564 1.3768414,-1.29587 2.778125,-1.11841 8.8814675,1.12477 17.6167498,5.83312 23.3311578,12.5756 3.551962,4.19099 5.546979,7.99435 8.118914,15.47813 1.939764,5.64429 2.157778,7.58819 1.083096,9.65729 -0.825812,1.58994 -1.987328,2.7639 -3.459954,3.49702 -1.213308,0.60402 -1.213308,0.60402 -47.515392,0.65417 -36.756291,0.0398 -46.558282,-0.0192 -47.544777,-0.28626 z M 33.23373,208.33103 c -0.241025,-0.0635 -0.707507,-0.79349 -1.036624,-1.62219 -1.505085,-3.78971 -4.708428,-9.13929 -7.251296,-12.10966 -0.92279,-1.07792 -0.92279,-1.07792 0.821502,-2.58558 2.402145,-2.07626 3.650343,-3.64519 4.87376,-6.12607 1.582666,-3.20939 1.976216,-4.99745 1.950858,-8.86354 -0.01884,-2.87184 -0.116649,-3.58599 -0.742889,-5.42396 -1.041646,-3.05718 -2.597349,-5.53235 -4.905751,-7.80521 -3.602255,-3.54679 -7.426262,-5.23036 -12.457705,-5.48467 -2.290829,-0.1158 -3.175014,-0.0413 -5.0063036,0.42179 -1.2232534,0.30934 -2.2647011,0.52182 -2.3143316,0.47219 -0.049631,-0.0496 0.045934,-1.32898 0.2123678,-2.843 0.3950123,-3.59343 0.1484789,-8.8979 -0.5823003,-12.52885 -0.5593927,-2.77939 -0.5626947,-2.89061 -0.095938,-3.23191 0.3713771,-0.27156 1.948987,-0.35347 6.8081447,-0.35347 8.58928,0 8.429377,-0.10448 8.648227,5.65096 l 0.139422,3.66658 1.616006,0.60664 c 0.888802,0.33365 2.002954,0.80674 2.475892,1.0513 0.859885,0.44467 0.859885,0.44467 3.411077,-2.05526 4.102685,-4.02025 4.029263,-4.03489 10.008156,1.99561 4.761659,4.80275 5.160092,5.40871 4.578887,6.96373 -0.159023,0.42546 -1.352698,1.8455 -2.652617,3.15563 l -2.363486,2.38206 1.035672,2.51273 1.035674,2.51273 3.656536,0.13229 c 5.696305,0.20609 5.642505,0.12364 5.637012,8.63895 -0.0042,6.50632 -0.07113,6.8816 -1.404051,7.872 -0.656373,0.48771 -1.188686,0.56567 -4.409329,0.64569 -3.662836,0.091 -3.662836,0.091 -3.833646,0.79375 -0.09395,0.3865 -0.539877,1.50964 -0.99096,2.49585 l -0.82015,1.79311 2.522895,2.57251 c 2.765242,2.81963 3.151796,3.61069 2.504252,5.1248 -0.445651,1.04203 -8.91753,9.48626 -9.517322,9.48626 -0.224772,0 -0.567243,0.0454 -0.761045,0.10084 -0.193805,0.0555 -0.549571,0.0489 -0.790596,-0.0146 z M 19.365935,189.09966 c -4.45026,-3.80444 -12.4525352,-7.72053 -18.1667892,-8.89032 l -1.51656261,-0.31046 0.80331206,-1.3713 c 1.78711755,-3.05071 3.79359325,-7.85163 4.93103975,-11.79855 0.4768585,-1.6547 0.525989,-1.71489 2.0174373,-2.47143 1.9117232,-0.96973 5.3293147,-1.61058 7.4091667,-1.38932 5.882593,0.62579 10.913859,4.67502 12.63385,10.16787 0.703992,2.24823 0.757631,5.89734 0.118977,8.09423 -0.927962,3.19208 -2.738027,5.85696 -5.218533,7.683 -0.878009,0.64635 -1.680914,1.17519 -1.784234,1.17519 -0.103319,0 -0.655767,-0.40001 -1.227664,-0.88891 z m -46.059858,-1.98208 c -8.390755,-2.47324 -15.89999,-13.08399 -18.658864,-26.36547 -0.519296,-2.49993 -0.605288,-3.71272 -0.609704,-8.59896 -0.0056,-6.15451 0.166651,-7.35521 1.660269,-11.576 2.192366,-6.19537 6.984296,-11.35446 12.781468,-13.76079 5.820643,-2.41607 13.152178,-2.18679 18.776199,0.5872 10.5615928,5.20938 15.3248443,17.36469 12.70528407,32.42251 -1.53781657,8.83971 -5.33006047,16.71938 -10.58363807,21.9911 -2.533877,2.54263 -4.293275,3.7619 -7.034302,4.87482 -2.423322,0.98392 -6.492386,1.17555 -9.036712,0.42559 z m -35.942456,-31.47675 c -0.436563,-0.27988 -2.471929,-2.2209 -4.523037,-4.31338 -4.982399,-5.08289 -5.001997,-5.21969 -1.284847,-8.96835 l 2.234485,-2.25342 -0.92205,-2.1122 c -0.507127,-1.16171 -0.923503,-2.26103 -0.925279,-2.44293 -0.0024,-0.24744 -0.868424,-0.33073 -3.43864,-0.33073 -3.421263,0 -3.438967,-0.003 -4.299479,-0.77158 -0.86407,-0.77158 -0.86407,-0.77158 -0.936947,-6.81302 -0.06785,-5.62491 -0.03688,-6.09961 0.449258,-6.8851 0.685782,-1.10808 1.807428,-1.40197 5.357787,-1.40382 2.823752,-0.001 2.823752,-0.001 3.144975,-0.99367 0.176673,-0.5457 0.613158,-1.57456 0.969968,-2.28635 0.648745,-1.29417 0.648745,-1.29417 -1.625026,-3.57852 -1.298421,-1.30447 -2.368035,-2.62199 -2.493523,-3.07146 -0.424855,-1.52173 0.04344,-2.21827 4.399284,-6.54348 4.194995,-4.165497 4.194995,-4.165497 5.44497,-4.165497 1.214849,0 1.318794,0.06658 3.698922,2.369137 l 2.448946,2.36913 2.301679,-0.97743 2.301679,-0.97742 v -2.987705 c 0,-5.468433 0.211116,-5.61673 7.995148,-5.616134 7.702119,5.9e-4 7.869473,0.11686 7.875952,5.471863 0.0038,3.111486 0.02455,3.229546 0.599213,3.402966 0.327422,0.0988 1.411401,0.53331 2.408846,0.96555 l 1.813534,0.7859 2.450306,-2.40293 c 2.322809,-2.277895 2.509726,-2.402927 3.592293,-2.402927 1.121714,0 1.218615,0.07612 5.457703,4.287137 5.684317,5.64668 5.685349,5.65247 1.708886,9.58139 -2.075281,2.05047 -2.112203,2.10948 -1.75378,2.80259 0.201374,0.38942 0.604877,1.33635 0.896675,2.1043 0.53054,1.39627 0.53054,1.39627 -0.580554,1.1829 -0.611102,-0.11736 -2.878997,-0.2268 -5.039765,-0.2432 -3.928671,-0.0298 -3.928671,-0.0298 -4.875736,-1.33966 -1.298342,-1.79567 -3.697169,-4.04348 -5.441424,-5.09887 -5.427289,-3.28388 -12.808344,-3.28388 -18.37757,0 -1.921276,1.13287 -4.964442,4.18087 -6.105565,6.11526 -4.182021,7.08921 -3.129981,15.80591 2.613338,21.65288 1.091406,1.11111 2.210061,2.13791 2.485899,2.28178 0.486436,0.25371 0.488426,0.34568 0.06615,3.05699 -0.239458,1.53747 -0.435378,3.62938 -0.435378,4.64867 0,1.0193 -0.101615,1.91607 -0.225811,1.99283 -0.124196,0.0768 -0.601306,-0.002 -1.060244,-0.17541 -0.827655,-0.3124 -0.853426,-0.29606 -3.172608,2.01238 -1.978432,1.96927 -2.497163,2.34681 -3.371527,2.45387 -0.734766,0.09 -1.262706,-0.0205 -1.827102,-0.38233 z m 10.675228,-19.20892 c -4.823519,-4.75539 -4.843705,-12.96704 -0.04462,-18.15062 5.069553,-5.47572 13.279143,-5.64944 18.821826,-0.39827 l 1.740672,1.64913 -1.441344,0.47251 c -6.839522,2.24219 -12.988589,7.80332 -16.438645,14.86686 -0.733258,1.50125 -1.359922,2.72955 -1.392586,2.72955 -0.03266,0 -0.593051,-0.52612 -1.245305,-1.16916 z"
         id="path2514" />
    </g>
  </g>
</svg>
